<!-- Generated by IcoMoon.io -->
<svg version="1.1" xmlns="http://www.w3.org/2000/svg" width="95" height="128" viewBox="0 0 95 128">
<title>ball</title>
<path fill="#fff" d="M46.413 0.147c-1.43 0.646-1.431 0.65-1.431 9.221v7.193h-3.504c-4.952 0-6.29 0.491-7.578 2.778-0.741 1.316-0.715 1.006-0.753 8.868l-0.035 7.105-1.037 0.359c-17.373 6.022-29.551 21.113-31.827 39.44-0.242 1.947-0.278 8.672-0.057 10.471 1.747 14.187 8.686 25.903 20.109 33.95 11.9 8.383 27.903 10.765 41.776 6.218 27.516-9.019 40.708-40.165 27.987-66.078-5.524-11.252-16.252-20.61-27.688-24.154l-0.609-0.189-0.035-7.114c-0.038-7.872-0.012-7.561-0.753-8.877-1.288-2.287-2.626-2.778-7.575-2.778h-3.501l-0.029-7.402-0.030-7.402-0.267-0.516c-0.545-1.053-2.079-1.583-3.163-1.093zM56.56 21.59l0.282 0.221v11.31h-18.805v-11.31l0.282-0.221c0.444-0.349 17.798-0.349 18.242 0zM49.362 38.040c32.889 1.594 51.705 38.189 33.799 65.736-16.778 25.812-54.653 25.812-71.445 0-17.84-27.423 0.93-64.16 33.586-65.734 0.911-0.044 1.704-0.086 1.763-0.094s1.093 0.033 2.297 0.092zM30.822 52.777c-1.284 2.584-2.385 4.716-2.448 4.739s-2.41 0.373-5.216 0.778c-2.806 0.405-5.102 0.765-5.102 0.801s1.671 1.695 3.713 3.687c2.042 1.992 3.727 3.676 3.745 3.742s-0.357 2.391-0.833 5.166c-0.476 2.775-0.851 5.088-0.834 5.139s2.132-1.008 4.698-2.355l4.666-2.448 4.67 2.454c2.568 1.35 4.686 2.438 4.706 2.418 0.031-0.031-1.579-9.583-1.717-10.184-0.041-0.179 0.685-0.936 3.739-3.898 2.085-2.022 3.791-3.701 3.791-3.732s-2.344-0.392-5.209-0.803l-5.209-0.747-2.351-4.728c-1.293-2.6-2.379-4.728-2.414-4.728s-1.113 2.114-2.397 4.697zM59.294 88.319c-1.62 3.299-2.351 4.683-2.504 4.739-0.119 0.044-2.476 0.405-5.238 0.802s-5.038 0.737-5.057 0.755c-0.020 0.017 1.014 1.056 2.297 2.308s2.99 2.927 3.792 3.721l1.459 1.445-0.895 5.176c-0.492 2.847-0.882 5.189-0.867 5.205s2.135-1.078 4.709-2.43l4.681-2.459 4.663 2.451c2.564 1.348 4.681 2.435 4.703 2.414s-0.359-2.368-0.846-5.217l-0.886-5.18 2.609-2.541c4.675-4.553 4.955-4.831 4.903-4.882-0.028-0.028-2.376-0.388-5.217-0.8s-5.185-0.769-5.208-0.793c-0.023-0.023-1.076-2.142-2.339-4.708s-2.337-4.666-2.385-4.666c-0.048 0-1.117 2.097-2.375 4.659z"></path>
</svg>
