<!-- Generated by IcoMoon.io -->
<svg version="1.1" xmlns="http://www.w3.org/2000/svg" width="64" height="64" viewBox="0 0 64 64">
<title>cone</title>
<path fill="#fff" d="M30 0.563c-0.086 0.103-0.208 0.188-0.273 0.188-0.239 0-1.125 0.818-1.382 1.276-0.146 0.26-0.312 0.474-0.368 0.474s-0.102 0.101-0.102 0.225c0 0.124-0.062 0.287-0.139 0.364-0.402 0.402-0.12 3.111 0.387 3.723 0.1 0.121 0.056 0.179-0.18 0.238-0.172 0.043-0.376 0.198-0.454 0.344-0.108 0.2-0.167 0.226-0.243 0.103-0.075-0.121-0.226-0.044-0.593 0.304-0.641 0.607-0.959 2.271-1.086 5.679-0.033 0.892-0.104 1.356-0.229 1.5-0.1 0.115-0.157 0.274-0.128 0.353s-0.006 0.181-0.079 0.226c-0.072 0.045-0.131-0.011-0.131-0.124 0-0.141-0.183-0.031-0.578 0.348l-0.578 0.554 0.217 0.332c0.196 0.299 0.198 0.332 0.015 0.332-0.111 0-0.202 0.056-0.202 0.125 0 0.12 0.146 0.16 0.344 0.094 0.052-0.017 0.101-0.172 0.109-0.344 0.033-0.657 0.051-0.722 0.203-0.716 0.435 0.016 0.719-0.046 0.719-0.159 0-0.069-0.099-0.129-0.219-0.134s0.005-0.091 0.277-0.19c0.273-0.1 0.573-0.152 0.668-0.116 0.1 0.038 0.198-0.034 0.234-0.171s0.214-0.268 0.426-0.31c0.287-0.057 0.364-0.14 0.364-0.389 0-0.368 0.696-0.476 0.83-0.128 0.040 0.103 0.178 0.187 0.309 0.188s0.237 0.056 0.237 0.125c0 0.069 0.059 0.125 0.132 0.125s0.106-0.042 0.074-0.094c-0.032-0.052 0.105-0.087 0.305-0.078 0.581 0.025 0.609 0.037 0.533 0.234-0.040 0.103-0.016 0.188 0.052 0.188s0.153-0.113 0.189-0.25c0.074-0.281 0.569-0.344 0.811-0.103 0.113 0.113 0.135 0.085 0.096-0.119-0.033-0.173 0.022-0.287 0.159-0.325 0.873-0.242 0.85-0.24 0.613-0.059-0.194 0.149-0.12 0.17 0.594 0.169 0.5-0.001 0.816-0.053 0.816-0.136 0-0.074-0.121-0.13-0.269-0.125-0.345 0.013-0.444-0.258-0.131-0.357 0.329-0.104 0.648 0.038 0.566 0.253-0.040 0.105 0.009 0.177 0.121 0.177 0.128 0 0.168 0.081 0.124 0.251-0.036 0.138 0.004 0.335 0.089 0.438 0.157 0.188 0.999 0.267 0.999 0.093 0-0.052 0.202-0.099 0.449-0.105 0.325-0.008 0.394 0.020 0.25 0.1-0.347 0.194-0.216 0.336 0.289 0.316 0.42-0.017 0.459-0.041 0.281-0.177-0.185-0.141-0.175-0.158 0.089-0.161 0.236-0.003 0.282-0.056 0.229-0.261-0.043-0.165-0.015-0.238 0.079-0.205 0.081 0.029 0.132 0.229 0.115 0.445-0.033 0.414 0.138 0.534 0.27 0.19 0.066-0.173 0.126-0.154 0.405 0.125 0.18 0.18 0.373 0.328 0.428 0.328 0.179 0 0.247-0.227 0.085-0.284-0.086-0.030-0.002-0.056 0.187-0.058s0.344 0.050 0.344 0.114c0 0.064-0.070 0.081-0.156 0.038s-0.047 0.009 0.086 0.118c0.22 0.178 0.183 0.257-0.098 0.208-0.058-0.010-0.080 0.053-0.049 0.141s0.162 0.15 0.291 0.138c0.129-0.012 0.277 0.044 0.328 0.125 0.062 0.098 0.094 0.074 0.096-0.072 0.002-0.258-0.015-0.255 0.48-0.082 0.387 0.135 0.389 0.14 0.2 0.506-0.105 0.203-0.157 0.48-0.114 0.614 0.044 0.138 0.019 0.244-0.056 0.244-0.073 0-0.133-0.108-0.133-0.241s-0.082-0.323-0.181-0.423-0.147-0.216-0.104-0.259c0.106-0.107-0.1-0.082-0.402 0.047-0.233 0.1-0.234 0.108-0.016 0.116 0.194 0.007 0.207 0.041 0.078 0.196-0.208 0.251-0.454 0.237-0.557-0.031-0.097-0.254-0.056-0.361 0.116-0.303 0.067 0.022 0.016-0.076-0.113-0.219-0.284-0.314-0.546-0.349-0.307-0.041 0.159 0.205 0.154 0.206-0.078 0.016-0.269-0.22-0.581-0.185-0.49 0.054 0.037 0.096-0.099 0.151-0.383 0.158-0.385 0.008-0.432-0.023-0.375-0.25 0.065-0.259 0.064-0.259-0.072 0.003-0.095 0.182-0.223 0.245-0.421 0.207-0.209-0.040-0.303 0.015-0.353 0.207-0.079 0.301 0.245 0.366 0.527 0.105 0.137-0.127 0.154-0.116 0.092 0.061-0.042 0.119-0.036 0.206 0.013 0.192 0.172-0.048 0.658 0.292 0.585 0.409-0.041 0.065-0.017 0.119 0.051 0.119s0.16-0.056 0.202-0.125c0.142-0.23 0.26-0.128 0.255 0.219-0.003 0.215 0.055 0.331 0.155 0.311 0.236-0.048 1.403 0.355 1.403 0.485 0 0.061-0.056 0.111-0.125 0.111s-0.125 0.060-0.125 0.133 0.052 0.1 0.116 0.060c0.064-0.040 0.157-0.006 0.207 0.075 0.062 0.1 0.011 0.126-0.161 0.081-0.138-0.036-0.352-0.010-0.474 0.059s-0.19 0.072-0.151 0.009-0.036-0.183-0.168-0.265c-0.209-0.13-0.25-0.109-0.318 0.163-0.111 0.441-0.34 0.388-0.726-0.17-0.272-0.392-0.392-0.471-0.648-0.422-0.214 0.041-0.411-0.030-0.616-0.223-0.257-0.241-0.388-0.272-0.877-0.205-0.549 0.075-0.572 0.066-0.506-0.201 0.038-0.154 0.037-0.21-0.002-0.124s-0.127 0.156-0.194 0.156c-0.067 0-0.096-0.042-0.064-0.094s-0.077-0.094-0.243-0.094-0.3 0.070-0.3 0.156c0 0.086-0.042 0.155-0.094 0.154-0.144-0.003-0.429-0.204-0.417-0.293 0.043-0.32-0.009-0.459-0.146-0.39-0.086 0.044-0.048-0.009 0.085-0.116s0.211-0.226 0.174-0.262c-0.097-0.097-0.477 0.070-0.477 0.21 0 0.065-0.052 0.087-0.116 0.047-0.215-0.133-0.286 0.197-0.075 0.351 0.189 0.138 0.185 0.152-0.044 0.152-0.139 0-0.229-0.023-0.2-0.052 0.076-0.076-0.515-0.519-0.693-0.519-0.102 0-0.128-0.122-0.079-0.368 0.074-0.37-0.235-0.634-0.529-0.453-0.201 0.124-0.007 0.559 0.218 0.489 0.214-0.066 0.005 0.133-0.544 0.518-0.249 0.175-0.248 0.175 0.010 0.182 0.422 0.011 0.314 0.544-0.114 0.563-0.408 0.018-0.422-0.029-0.053-0.177 0.226-0.091 0.237-0.115 0.055-0.121-0.124-0.004-0.191-0.064-0.149-0.133s0.004-0.127-0.086-0.129c-0.109-0.003-0.097-0.043 0.038-0.122 0.287-0.168 0.161-0.749-0.163-0.749-0.187 0-0.225-0.058-0.165-0.249s0.033-0.232-0.116-0.174c-0.107 0.041-0.166 0.121-0.131 0.178s-0.007 0.144-0.095 0.195c-0.087 0.050-0.119 0.047-0.070-0.006s0.001-0.184-0.105-0.29c-0.155-0.155-0.213-0.161-0.294-0.029-0.055 0.090-0.184 0.132-0.286 0.093s-0.234-0.024-0.294 0.034c-0.060 0.058-0.181 0.025-0.27-0.072-0.093-0.103-0.107-0.177-0.031-0.177 0.072 0 0.13-0.056 0.13-0.125 0-0.238-0.442-0.124-0.797 0.206-0.197 0.182-0.507 0.337-0.689 0.344-0.244 0.009-0.385 0.121-0.534 0.423-0.191 0.387-0.189 0.406 0.019 0.34 0.13-0.041 0.25 0.004 0.291 0.11 0.056 0.147-0.003 0.159-0.328 0.066-0.498-0.143-0.494-0.143-0.387 0.030 0.050 0.081 0.035 0.111-0.034 0.068-0.071-0.044-0.123 0.082-0.123 0.293 0 0.203 0.047 0.369 0.104 0.369s0.101 0.127 0.096 0.281c-0.008 0.279-0.009 0.279-0.115 0.017-0.141-0.349-0.457-0.458-0.793-0.272-0.15 0.083-0.346 0.136-0.437 0.117-0.133-0.027-0.135 0.021-0.010 0.255 0.094 0.176 0.175 0.227 0.206 0.132 0.067-0.202 0.236-0.202 0.251 0 0.007 0.086 0.048 0.297 0.093 0.469 0.076 0.295 0.070 0.299-0.108 0.081-0.177-0.217-0.214-0.219-0.591-0.031-0.221 0.11-0.478 0.201-0.57 0.201-0.097 0-0.168 0.135-0.168 0.32 0 0.181-0.054 0.286-0.125 0.243-0.069-0.042-0.125-0.193-0.125-0.335 0-0.222-0.028-0.235-0.199-0.093-0.181 0.15-0.179 0.18 0.024 0.328 0.122 0.090 0.17 0.165 0.105 0.168s0.038 0.090 0.229 0.193c0.191 0.103 0.416 0.147 0.5 0.096 0.101-0.061 0.096-0.021-0.016 0.117-0.129 0.159-0.226 0.178-0.406 0.082-0.185-0.099-0.237-0.084-0.237 0.065 0 0.106 0.080 0.192 0.177 0.192s0.201 0.070 0.23 0.156c0.077 0.23-0.041 0.594-0.192 0.594-0.072 0-0.094-0.037-0.049-0.083 0.122-0.122-0.443-0.379-0.697-0.317-0.12 0.030-0.219 0.103-0.219 0.164s-0.098 0.109-0.219 0.108c-0.173-0.002-0.183-0.025-0.046-0.111 0.096-0.061 0.131-0.177 0.078-0.261-0.073-0.117-0.118-0.113-0.199 0.017-0.058 0.093-0.172 0.17-0.255 0.17s-0.174 0.070-0.202 0.156c-0.030 0.089 0.020 0.13 0.115 0.095 0.331-0.122 0.541 0.139 0.385 0.481-0.162 0.355-0.842 0.3-0.845-0.068-0.001-0.106-0.060-0.27-0.131-0.366-0.286-0.384-0.601-1.106-0.518-1.189 0.049-0.049 0.088 0.005 0.088 0.12 0 0.125 0.1 0.208 0.25 0.208 0.138 0 0.25-0.056 0.25-0.125s-0.084-0.125-0.188-0.125c-0.216 0-0.25-0.197-0.054-0.318 0.191-0.118 0.495 0.336 0.411 0.614-0.049 0.161-0.018 0.215 0.099 0.175 0.18-0.062 0.201-0.391 0.048-0.752-0.066-0.156-0.035-0.219 0.108-0.219 0.124 0 0.202-0.108 0.205-0.281 0.004-0.274 0.009-0.275 0.188-0.039 0.173 0.229 0.275 0.056 0.152-0.261-0.101-0.261-0.844-0.117-0.844 0.163 0 0.161-0.056 0.293-0.125 0.293s-0.125-0.055-0.125-0.121-0.084-0.089-0.188-0.049c-0.103 0.040-0.188 0.011-0.188-0.063s-0.077-0.105-0.172-0.069c-0.219 0.084-0.595 0.911-0.563 1.239 0.048 0.492-0.019 0.688-0.234 0.691-0.207 0.003-0.207 0.011 0.003 0.133 0.246 0.143 0.179 0.363-0.111 0.363-0.108 0-0.15-0.060-0.1-0.141s0.023-0.12-0.065-0.091c-0.083 0.028-0.151 0.105-0.151 0.172s-0.081 0.212-0.18 0.321-0.209 0.475-0.243 0.813c-0.034 0.337-0.094 0.714-0.133 0.838s-0.003 0.306 0.079 0.406c0.099 0.119 0.105 0.182 0.017 0.182-0.074 0-0.191-0.098-0.261-0.219-0.121-0.207-0.128-0.207-0.131 0.004-0.002 0.123 0.104 0.263 0.236 0.313 0.207 0.077 0.217 0.121 0.076 0.313-0.156 0.213-0.175 0.213-0.382 0.006s-0.213-0.203-0.121 0.088c0.084 0.264 0.071 0.284-0.093 0.148-0.321-0.266-0.483 0.845-0.224 1.528 0.094 0.248 0.069 0.416-0.11 0.735-0.372 0.663-0.44 1.173-0.202 1.536 0.189 0.288 0.19 0.342 0.011 0.616-0.108 0.165-0.196 0.498-0.196 0.741 0 0.429-0.172 0.602-0.285 0.286-0.030-0.086-0.117 0.063-0.193 0.332-0.158 0.56-0.105 0.723 0.2 0.607 0.196-0.074 0.195-0.061-0.009 0.144-0.209 0.211-0.21 0.236-0.013 0.38 0.161 0.118 0.187 0.24 0.111 0.517-0.165 0.598 0.065 1.676 0.358 1.676 0.131 0 0.057 0.441-0.238 1.411-0.247 0.814-0.104 1.837 0.334 2.394 0.122 0.155 0.192 0.392 0.155 0.53-0.041 0.159 0.058 0.396 0.275 0.653l0.34 0.404-0.208 1.061c-0.241 1.226-0.148 1.82 0.359 2.297 0.173 0.162 0.314 0.389 0.314 0.504 0 0.298 0.351 0.961 0.549 1.037 0.13 0.050 0.154 0.33 0.106 1.247-0.070 1.338 0.372 2.564 1.293 3.583 0.235 0.26 0.428 0.554 0.428 0.652s0.066 0.245 0.147 0.325c0.112 0.112 0.112 0.222 0 0.468-0.424 0.93 0.005 2.231 0.917 2.782 0.66 0.398 0.881 0.805 1.063 1.953 0.211 1.33 0.813 2.2 1.522 2.2 0.24 0 0.601 0.653 0.601 1.086 0 0.62 0.747 1.432 1.816 1.973 0.389 0.197 0.742 0.446 0.783 0.553 0.155 0.404 1.273 1.263 2.2 1.692s2.561 0.355 3.052-0.136c0.093-0.093 0.23-0.133 0.304-0.087 0.080 0.049 0.098 0.024 0.045-0.062-0.053-0.085 0.005-0.175 0.137-0.217 1.29-0.411 2.681-1.663 3.079-2.771 0.172-0.478 0.352-0.716 0.736-0.97 0.921-0.61 1.081-0.862 1.493-2.358 0.155-0.56 0.573-1.149 0.778-1.093 0.428 0.116 1.453-1.769 1.453-2.671 0-0.866 0.328-1.602 1.044-2.342 0.703-0.726 0.931-1.454 0.947-3.027 0.008-0.742 0.064-1.152 0.167-1.217 0.085-0.054 0.106-0.099 0.047-0.1s0.095-0.227 0.344-0.502c0.433-0.48 0.452-0.539 0.452-1.422 0-0.667 0.052-0.965 0.188-1.077s0.188-0.411 0.188-1.085c0-0.853 0.032-0.969 0.389-1.414 0.415-0.516 0.628-1.487 0.391-1.781-0.276-0.342-0.3-0.943-0.059-1.47 0.134-0.293 0.25-0.853 0.265-1.289 0.022-0.614 0.102-0.882 0.395-1.325 0.202-0.305 0.374-0.615 0.381-0.69 0.034-0.331-0.047-0.731-0.21-1.045-0.097-0.187-0.178-0.546-0.178-0.798s-0.071-0.487-0.157-0.521c-0.125-0.050-0.125-0.065 0-0.073 0.245-0.015 0.185-0.747-0.090-1.096-0.245-0.312-0.245-0.316 0.002-0.799 0.319-0.625 0.465-1.911 0.247-2.174-0.087-0.105-0.113-0.19-0.058-0.19s-0.037-0.145-0.203-0.323c-0.243-0.259-0.305-0.463-0.314-1.031-0.012-0.779-0.108-1.252-0.289-1.433-0.065-0.065-0.085-0.205-0.044-0.311 0.045-0.118 0.022-0.161-0.059-0.111-0.076 0.047-0.168-0.057-0.214-0.241-0.058-0.23-0.139-0.301-0.281-0.246-0.167 0.064-0.174 0.045-0.042-0.114 0.122-0.147 0.124-0.231 0.010-0.368-0.091-0.11-0.116-0.346-0.066-0.613 0.065-0.345 0.028-0.489-0.18-0.697-0.144-0.144-0.262-0.34-0.262-0.436s-0.088-0.208-0.196-0.249c-0.107-0.041-0.163-0.128-0.123-0.192s0.020-0.15-0.044-0.189c-0.064-0.040-0.239-0.325-0.388-0.634-0.242-0.5-0.625-0.768-0.625-0.437 0 0.069 0.056 0.125 0.125 0.125s0.125 0.062 0.125 0.138-0.084 0.106-0.188 0.066c-0.114-0.044-0.188-0-0.188 0.112 0 0.101-0.056 0.183-0.125 0.183-0.146 0-0.167-0.291-0.031-0.427 0.051-0.052 0.096-0.234 0.1-0.406 0.005-0.267-0.015-0.284-0.139-0.115-0.182 0.249-0.305 0.253-0.305 0.010 0-0.222-0.060-0.231-0.385-0.057-0.189 0.101-0.26 0.087-0.318-0.063-0.087-0.227-0.38-0.257-0.451-0.045-0.027 0.082-0.142 0.111-0.258 0.067-0.121-0.046-0.179-0.159-0.138-0.266 0.060-0.157 0.022-0.163-0.248-0.036-0.176 0.082-0.343 0.234-0.371 0.337-0.039 0.141-0.055 0.134-0.066-0.031-0.009-0.135-0.116-0.219-0.278-0.219-0.189 0-0.242-0.056-0.188-0.198 0.042-0.109 0.076-0.22 0.076-0.247s0.144 0.006 0.321 0.073c0.418 0.159 0.429 0.157 0.429-0.079 0-0.111-0.141-0.312-0.314-0.448s-0.284-0.295-0.248-0.353c0.036-0.059 0.008-0.142-0.061-0.185-0.266-0.164-0.112-0.302 0.186-0.166 0.172 0.078 0.313 0.19 0.313 0.247s0.084 0.105 0.188 0.105c0.103 0 0.188 0.056 0.188 0.125s0.113 0.125 0.252 0.125c0.21 0 0.24 0.058 0.179 0.344-0.065 0.302-0.053 0.319 0.095 0.139 0.155-0.189 0.191-0.186 0.459 0.031 0.16 0.129 0.339 0.205 0.399 0.169s0.176 0.042 0.259 0.176c0.083 0.133 0.23 0.212 0.327 0.175 0.194-0.074-1.16-1.395-1.438-1.403-0.086-0.003-0.156-0.061-0.156-0.13s-0.054-0.125-0.119-0.125c-0.066 0-0.255-0.127-0.421-0.281s-0.436-0.403-0.599-0.553c-0.164-0.149-0.494-0.473-0.735-0.718s-0.508-0.447-0.594-0.447c-0.086-0-0.156-0.073-0.156-0.161 0-0.302-0.696-0.617-0.879-0.398-0.17 0.204-0.279 0.159-0.322-0.133-0.016-0.107 0.073-0.184 0.212-0.184 0.298 0 0.297-0.104-0.002-0.494-0.161-0.209-0.215-0.43-0.172-0.697 0.035-0.215-0.028-0.745-0.139-1.179-0.21-0.818-0.362-1.761-0.355-2.193 0.014-0.825-0.383-2.431-0.667-2.698-0.166-0.156-0.302-0.242-0.302-0.191s-0.177-0.033-0.393-0.187c-0.269-0.192-0.581-0.282-0.988-0.287l-0.595-0.007 0.269-0.378c0.148-0.208 0.262-0.406 0.253-0.441s0.041-0.203 0.111-0.375c0.070-0.172 0.123-0.412 0.118-0.534s0.048-0.186 0.12-0.141c0.088 0.054 0.091 0.005 0.009-0.154-0.066-0.128-0.1-0.459-0.075-0.734 0.076-0.841-1.066-2.803-1.638-2.815-0.070-0.001-0.269-0.113-0.441-0.247-0.401-0.314-1.88-0.357-2.125-0.062zM31.813 1.303c1.080 0.52 1.569 1.342 1.603 2.697 0.030 1.219-0.965 2.525-1.821 2.39-0.052-0.008-0.094 0.075-0.094 0.184 0 0.162 0.091 0.183 0.495 0.115 0.272-0.046 0.549-0.051 0.613-0.011 0.186 0.115 0.017 0.565-0.184 0.488-0.105-0.040-0.175 0.013-0.175 0.134 0 0.11-0.055 0.201-0.121 0.201s-0.089 0.084-0.049 0.188c0.048 0.125-0.005 0.187-0.16 0.186-0.129-0.001-0.177-0.043-0.107-0.094 0.127-0.094 0.172-0.503 0.061-0.557-0.12-0.059-0.62 0.365-0.533 0.452 0.049 0.049-0.002 0.054-0.114 0.011s-0.24-0.2-0.286-0.35c-0.055-0.181-0.106-0.217-0.151-0.107-0.050 0.122-0.113 0.101-0.241-0.082-0.112-0.16-0.262-0.224-0.424-0.182-0.325 0.085-0.325 0.287-0.001 0.287 0.138 0 0.25 0.056 0.25 0.125 0 0.143-0.141 0.159-0.427 0.049-0.118-0.045-0.198-0.223-0.198-0.442 0-0.329-0.026-0.352-0.253-0.231-0.286 0.153-0.497 0.070-0.497-0.196 0-0.099-0.063-0.18-0.14-0.18-0.078 0-0.111-0.11-0.074-0.25 0.036-0.138 0.017-0.22-0.042-0.184-0.373 0.23-0.567-2.228-0.237-3.010 0.395-0.939 1.593-1.859 2.493-1.916 0.103-0.007 0.469 0.123 0.813 0.289zM33.5 7.090c0 0.449-0.007 0.456-0.188 0.198-0.103-0.147-0.153-0.357-0.111-0.465 0.136-0.354 0.299-0.208 0.299 0.268zM29.173 7.426c0.041 0.165 0.11 0.404 0.153 0.531 0.047 0.142-0.047 0.086-0.245-0.145-0.359-0.418-0.421-0.688-0.157-0.688 0.096 0 0.208 0.135 0.249 0.301zM28.7 8.091c-0.1 0.1-0.152 0.032-0.259-0.341l-0.090-0.313 0.212 0.289c0.116 0.159 0.178 0.323 0.137 0.364zM32.7 8.676c-0.103 0.247-0.247 0.449-0.319 0.449-0.182 0-0.169-0.061 0.138-0.661 0.315-0.614 0.456-0.447 0.181 0.212zM28.372 9.219c0.005 0.303-0.224 0.152-0.36-0.237-0.075-0.216-0.136-0.427-0.134-0.469 0.005-0.144 0.492 0.551 0.494 0.706zM29.037 10.565c0.186 0.38 0.337 0.731 0.334 0.781-0.007 0.157-0.496-0.491-0.496-0.658 0-0.087-0.084-0.228-0.188-0.314s-0.188-0.233-0.188-0.328c0-0.353 0.208-0.152 0.537 0.518zM32.527 10.773c-0.191 0.191-0.307 0.074-0.201-0.201 0.058-0.152 0.121-0.175 0.215-0.081s0.090 0.177-0.015 0.281zM33.202 11.469c-0.036 0.12-0.102 0.373-0.147 0.562-0.096 0.4-0.371 0.456-0.466 0.094-0.042-0.161-0.004-0.25 0.108-0.25 0.095 0 0.209-0.141 0.252-0.313s0.133-0.313 0.198-0.313 0.091 0.098 0.055 0.219zM31.66 11.814c0.203 0.28 0.204 0.299 0.011 0.225-0.137-0.053-0.182-0.033-0.127 0.056 0.047 0.076-0.085 0.053-0.292-0.050s-0.373-0.254-0.367-0.335c0.007-0.103 0.029-0.1 0.073 0.009 0.088 0.218 0.292 0.196 0.292-0.031 0-0.272 0.155-0.224 0.41 0.127zM28.168 12c0.122 0.206 0.182 0.44 0.133 0.518-0.079 0.128-0.531-0.534-0.546-0.8-0.012-0.216 0.206-0.067 0.413 0.282zM33.75 14.521c0 0.057 0.084 0.104 0.187 0.104s0.187 0.098 0.186 0.219c-0.002 0.187-0.020 0.191-0.123 0.031-0.108-0.167-0.123-0.167-0.133 0s-0.020 0.167-0.085 0c-0.040-0.103-0.156-0.248-0.257-0.323-0.159-0.117-0.156-0.136 0.020-0.136 0.112 0 0.204 0.047 0.204 0.104zM26.613 14.883c-0.242 0.15-0.301 0.032-0.104-0.206 0.121-0.145 0.184-0.16 0.221-0.051 0.028 0.084-0.024 0.2-0.117 0.257zM27.215 14.745c-0.080 0.305 0.142 0.484 0.297 0.24 0.128-0.203 0.088-0.389-0.098-0.451-0.073-0.024-0.163 0.071-0.199 0.211zM31.875 16.188c0 0.103 0.056 0.188 0.125 0.188s0.125-0.084 0.125-0.188c0-0.103-0.056-0.188-0.125-0.188s-0.125 0.084-0.125 0.188zM34.207 16.307c-0.052 0.135 0.003 0.193 0.182 0.193 0.143 0 0.235-0.066 0.207-0.148-0.077-0.231-0.308-0.258-0.389-0.044zM32.937 16.376c-0.042 0.068-0.003 0.127 0.087 0.132s0.037 0.059-0.118 0.121c-0.155 0.062-0.281 0.182-0.281 0.267 0 0.114 0.037 0.117 0.14 0.014 0.077-0.077 0.21-0.113 0.296-0.080s0.184-0.014 0.219-0.104c0.079-0.206-0.235-0.524-0.344-0.349zM28.688 16.5c-0.043 0.069-0.008 0.125 0.076 0.125s0.12 0.033 0.079 0.074-0.198 0.035-0.35-0.014c-0.216-0.069-0.238-0.111-0.103-0.197 0.233-0.148 0.392-0.142 0.298 0.012zM23.406 16.718c-0.086 0.029-0.161 0.175-0.166 0.324s-0.038 0.201-0.073 0.115c-0.077-0.191-0.292-0.207-0.292-0.022 0 0.074-0.094 0.228-0.21 0.344-0.196 0.197-0.196 0.212 0 0.25 0.256 0.049 0.28 0.272 0.030 0.272-0.099 0-0.22 0.065-0.27 0.145-0.061 0.099-0.005 0.123 0.18 0.074 0.237-0.062 0.27-0.019 0.27 0.351 0 0.324 0.044 0.405 0.188 0.35 0.12-0.046 0.188 0.003 0.188 0.136 0 0.115 0.056 0.173 0.125 0.131 0.214-0.132 0.155-0.817-0.063-0.733-0.103 0.040-0.188 0.006-0.188-0.075 0-0.087 0.14-0.131 0.344-0.107 0.32 0.037 0.344 0.009 0.348-0.429 0.002-0.258-0.036-0.469-0.086-0.469s-0.108-0.16-0.129-0.355c-0.024-0.218-0.099-0.335-0.195-0.302zM24.602 17.094c-0.023 0.197 0.040 0.406 0.146 0.489 0.153 0.119 0.104 0.16-0.28 0.233-0.256 0.048-0.436 0.135-0.4 0.194s0.219 0.051 0.405-0.017c0.187-0.068 0.422-0.153 0.523-0.189 0.159-0.057 0.16-0.080 0.004-0.177-0.181-0.112 0.245-0.625 0.519-0.625 0.058 0 0.106-0.052 0.106-0.116 0-0.070-0.15-0.073-0.375-0.009s-0.375 0.061-0.375-0.009c0-0.28-0.237-0.083-0.273 0.227zM27.247 17.171c-0.17 0.163-0.334 0.275-0.362 0.25-0.073-0.065 0.401-0.529 0.55-0.538 0.067-0.004-0.017 0.126-0.188 0.289zM27.937 17.25c-0.042 0.069-0.158 0.125-0.257 0.125s-0.18-0.056-0.18-0.125c0-0.069 0.116-0.125 0.257-0.125s0.223 0.056 0.18 0.125zM23.427 17.451c0.109 0.042 0.193 0.168 0.188 0.281-0.006 0.13-0.033 0.148-0.073 0.049-0.035-0.086-0.143-0.156-0.24-0.156s-0.177-0.056-0.177-0.125c0-0.146 0.035-0.151 0.302-0.049zM27.556 17.489c0.039 0.063 0.004 0.137-0.077 0.164-0.241 0.080 0.011 0.347 0.327 0.347 0.338 0 0.975 0.302 0.867 0.411-0.041 0.041 0.171 0.047 0.471 0.014 0.626-0.069 1.042 0.148 0.915 0.477-0.109 0.285-0.456 0.337-0.684 0.103-0.103-0.106-0.272-0.201-0.375-0.21s-0.279-0.055-0.39-0.101c-0.142-0.059-0.23 0.002-0.295 0.205-0.085 0.265-0.097 0.268-0.155 0.047-0.038-0.145 0.027-0.307 0.162-0.406 0.211-0.154 0.207-0.165-0.056-0.165-0.181 0-0.249-0.052-0.192-0.144 0.053-0.087 0.035-0.111-0.047-0.060-0.075 0.046-0.116 0.192-0.091 0.323 0.034 0.179-0.014 0.227-0.195 0.192-0.16-0.031-0.244 0.025-0.249 0.165-0.005 0.147-0.044 0.122-0.126-0.083-0.068-0.169-0.189-0.267-0.285-0.23-0.092 0.035-0.246 0.014-0.343-0.047-0.141-0.089-0.13-0.112 0.052-0.113 0.302-0.003 0.226-0.421-0.088-0.481-0.144-0.028-0.2 0.007-0.148 0.092 0.048 0.078-0.003 0.137-0.119 0.137-0.128 0-0.187-0.081-0.159-0.219 0.035-0.171 0.149-0.21 0.525-0.18 0.393 0.032 0.467 0.003 0.406-0.156-0.081-0.21 0.225-0.281 0.348-0.081zM21.643 17.756c-0.474 0.254-1.018 0.733-1.018 0.895 0 0.166 0.389-0.080 1.003-0.636 0.621-0.561 0.622-0.586 0.015-0.259zM31.526 18.21c-0.132 0.053-0.132 0.102 0 0.271 0.144 0.184 0.138 0.188-0.057 0.035-0.12-0.094-0.219-0.221-0.219-0.281s0.098-0.105 0.219-0.1c0.139 0.006 0.16 0.033 0.057 0.075zM25 18.499c0 0.099-0.367 0.442-0.385 0.36-0.094-0.422-0.049-0.569 0.158-0.514 0.125 0.033 0.228 0.102 0.228 0.155zM32.123 18.524c0.001-0.090 0.064-0.125 0.14-0.078 0.096 0.059 0.087 0.118-0.031 0.193-0.148 0.094-0.074 0.157 0.153 0.133 0.040-0.004 0.073 0.073 0.073 0.173s-0.026 0.18-0.058 0.18c-0.109 0-0.525-0.537-0.523-0.675 0.001-0.075 0.056-0.053 0.123 0.050 0.088 0.136 0.122 0.143 0.123 0.024zM33.5 18.515c0-0.077 0.056-0.14 0.125-0.14s0.111 0.070 0.094 0.156c-0.020 0.099 0.084 0.143 0.281 0.119 0.246-0.029 0.273-0.010 0.125 0.091-0.103 0.070-0.286 0.097-0.406 0.060-0.176-0.055-0.223 0.013-0.239 0.347l-0.020 0.415-0.050-0.406c-0.040-0.325-0.105-0.403-0.324-0.392-0.211 0.011-0.224 0.027-0.055 0.072 0.267 0.070 0.291 0.289 0.031 0.289-0.103 0-0.188 0.084-0.188 0.188 0 0.227 0.204 0.249 0.292 0.031 0.038-0.093 0.067-0.068 0.073 0.063 0.005 0.12-0.075 0.219-0.178 0.219s-0.188 0.091-0.188 0.202c0 0.142 0.083 0.186 0.281 0.148 0.223-0.043 0.285 0.006 0.299 0.235 0.022 0.358-0.447 0.411-0.539 0.061-0.033-0.126-0.224-0.325-0.425-0.444l-0.365-0.216 0.312-0.289c0.172-0.159 0.312-0.334 0.312-0.389 0-0.229 0.439-0.526 0.594-0.403 0.106 0.085 0.156 0.079 0.156-0.016zM34.792 18.613c-0.057 0.043-0.146 0.129-0.198 0.191s-0.094-0.007-0.094-0.154c0-0.192 0.055-0.246 0.198-0.191 0.109 0.042 0.151 0.111 0.094 0.154zM26.427 18.826c0.109 0.042 0.198 0.156 0.198 0.254 0 0.129-0.060 0.148-0.219 0.066-0.12-0.062-0.289-0.087-0.375-0.056-0.165 0.059-0.214-0.115-0.073-0.256 0.103-0.103 0.215-0.105 0.469-0.007zM31.766 19.491c-0.043 0.211-0.081 0.251-0.11 0.115-0.024-0.113-0.154-0.235-0.288-0.27-0.324-0.085-0.308-0.27 0.038-0.426 0.332-0.15 0.465 0.064 0.36 0.58zM30.937 19.25c-0.037 0.059 0.059 0.196 0.213 0.304s0.221 0.196 0.149 0.196c-0.186 0-0.694-0.564-0.596-0.662 0.112-0.112 0.316 0.029 0.234 0.162zM36.333 19.333c-0.097 0.097-0.454-0.114-0.384-0.227 0.044-0.070 0.145-0.058 0.252 0.031 0.099 0.082 0.158 0.17 0.132 0.197zM39.346 19.352c0.030 0.091-0.027 0.119-0.148 0.073-0.109-0.042-0.198-0.131-0.198-0.198 0-0.164 0.284-0.061 0.346 0.125zM29.042 19.697c-0.043 0.111 0.011 0.178 0.142 0.178s0.194 0.081 0.169 0.212c-0.048 0.249-0.744 0.302-0.823 0.062-0.031-0.093 0.025-0.121 0.148-0.074 0.109 0.042 0.198 0.020 0.198-0.049s-0.084-0.157-0.188-0.197c-0.103-0.040-0.188-0.161-0.188-0.271s0.056-0.164 0.125-0.122c0.069 0.043 0.125 0.011 0.125-0.070 0-0.113 0.043-0.112 0.18 0.002 0.099 0.082 0.149 0.23 0.112 0.328zM26.346 19.602c0.030 0.091-0.027 0.119-0.148 0.073-0.109-0.042-0.198-0.131-0.198-0.198 0-0.164 0.284-0.061 0.346 0.125zM37.799 19.573c0.047 0.122 0.019 0.179-0.072 0.148-0.187-0.062-0.29-0.346-0.125-0.346 0.067 0 0.156 0.089 0.198 0.198zM35.458 19.688c0 0.105-0.111 0.188-0.253 0.188-0.219 0-0.050-0.259 0.243-0.371 0.006-0.002 0.011 0.080 0.011 0.183zM39.33 19.813c-0.039 0.103-0.016 0.188 0.053 0.188s0.152-0.070 0.186-0.156c0.096-0.248 0.956-0.25 0.908-0.002-0.021 0.11-0.111 0.215-0.198 0.232s-0.102 0.003-0.031-0.031c0.158-0.078 0.169-0.293 0.015-0.293-0.139 0-0.395 0.7-0.294 0.802 0.040 0.040 0.134 0.072 0.209 0.071s0.051-0.056-0.052-0.123c-0.113-0.073-0.128-0.122-0.039-0.123 0.082-0.001 0.178 0.044 0.213 0.101 0.111 0.179-0.071 0.647-0.251 0.647-0.095 0-0.173 0.080-0.173 0.179s-0.085 0.264-0.19 0.368c-0.104 0.104-0.182 0.235-0.173 0.29 0.068 0.403-0.060 0.238-0.263-0.337-0.265-0.753-0.314-1.061-0.115-0.719 0.155 0.266 0.49 0.29 0.49 0.035 0-0.118 0.072-0.156 0.203-0.106 0.181 0.069 0.179 0.041-0.014-0.254-0.202-0.309-0.458-0.452-0.424-0.238 0.040 0.253-0.028 0.413-0.145 0.341-0.072-0.044-0.092-0.202-0.044-0.35 0.071-0.224 0.055-0.244-0.093-0.121-0.144 0.12-0.179 0.103-0.179-0.086 0-0.129 0.044-0.207 0.098-0.173s0.098-0.027 0.098-0.134 0.062-0.195 0.138-0.195c0.076 0 0.106 0.084 0.066 0.188zM31.125 20.009c0 0.059-0.084 0.075-0.188 0.036s-0.187-0.024-0.186 0.035c0.001 0.135 0.592 0.415 0.789 0.374 0.081-0.017 0.019 0.026-0.138 0.095-0.162 0.072-0.257 0.198-0.22 0.294 0.036 0.093 0.011 0.135-0.055 0.095s-0.241 0.065-0.389 0.235c-0.266 0.306-0.844 0.224-0.649-0.093 0.041-0.065 0.145-0.021 0.232 0.098 0.199 0.273 0.477-0.132 0.354-0.514-0.056-0.174-0.045-0.187 0.049-0.055 0.068 0.095 0.185 0.134 0.262 0.086 0.216-0.134 0.163-0.321-0.090-0.321-0.323 0-0.407-0.121-0.265-0.387 0.118-0.221 0.494-0.205 0.494 0.021zM30.5 20.464c0 0.034-0.087 0.029-0.192-0.012-0.117-0.045-0.178-0.012-0.157 0.084 0.043 0.187-0.444 0.839-0.627 0.839-0.070 0-0.151 0.042-0.18 0.094s-0.033 0.017-0.009-0.076c0.026-0.1-0.026-0.144-0.125-0.106-0.093 0.035-0.168-0.012-0.168-0.106s0.043-0.143 0.096-0.111c0.053 0.032 0.128 0.007 0.167-0.056s0.198-0.087 0.352-0.054c0.226 0.050 0.244 0.035 0.094-0.072-0.162-0.116-0.158-0.134 0.031-0.136 0.361-0.003 0.246-0.251-0.125-0.268-0.304-0.015-0.293-0.026 0.094-0.1 0.425-0.081 0.75-0.046 0.75 0.081zM34.322 20.43c0.112 0.112 0.132 0.209 0.054 0.257-0.069 0.043-0.126 0.023-0.126-0.043s-0.127-0.088-0.281-0.048c-0.251 0.065-0.263 0.050-0.11-0.137 0.209-0.255 0.237-0.256 0.463-0.030zM41.746 21.179c-0.002 0.074-0.061 0.035-0.131-0.085s-0.209-0.219-0.309-0.219c-0.1 0-0.181-0.084-0.181-0.187 0-0.143 0.073-0.123 0.313 0.085 0.172 0.149 0.311 0.332 0.309 0.405zM33.187 20.751c-0.091 0.146-0.562 0.169-0.562 0.026 0-0.054 0.144-0.11 0.319-0.124 0.185-0.015 0.287 0.026 0.243 0.098zM38.25 20.737c0 0.061-0.084 0.144-0.188 0.183-0.191 0.073-0.256-0.060-0.104-0.212 0.119-0.119 0.292-0.103 0.292 0.028zM32.431 20.911c-0.034 0.088-0.215 0.17-0.402 0.182l-0.341 0.022 0.375-0.172c0.206-0.095 0.387-0.177 0.402-0.182s-0 0.062-0.034 0.15zM25.785 21.225c-0.118 0.075-0.115 0.169 0.016 0.421 0.113 0.218 0.128 0.381 0.047 0.495-0.093 0.131-0.105 0.12-0.052-0.048 0.045-0.141 0.005-0.219-0.113-0.219-0.121 0-0.183-0.129-0.183-0.375 0-0.275 0.059-0.375 0.219-0.373 0.151 0.001 0.172 0.032 0.067 0.099zM28.851 21.592c-0.048 0.245-0.233 0.315-0.459 0.172-0.106-0.067-0.138-0.206-0.085-0.373 0.103-0.323 0.609-0.136 0.544 0.201zM31.047 21.432c-0.037 0.096-0.144 0.204-0.239 0.24-0.14 0.053-0.146 0.008-0.035-0.236 0.142-0.311 0.393-0.315 0.274-0.003zM40.534 21.382c-0.040 0.152-0.137 0.23-0.238 0.191-0.174-0.067-0.219 0.055-0.175 0.472 0.021 0.199-0.002 0.208-0.157 0.064-0.228-0.213-0.065-0.624 0.325-0.818 0.15-0.075 0.282-0.143 0.293-0.151s-0.011 0.1-0.048 0.242zM31.945 21.427c0.133 0.098 0.202 0.218 0.152 0.268s-0.168 0.027-0.261-0.051c-0.094-0.078-0.208-0.105-0.253-0.059s-0.082-0.012-0.082-0.126c0-0.255 0.126-0.264 0.445-0.031zM41.5 21.5c0 0.137-0.050 0.25-0.112 0.25-0.141 0-0.272-0.325-0.171-0.425 0.15-0.151 0.283-0.069 0.283 0.175zM26.969 21.594c0.029 0.086-0.012 0.156-0.091 0.156s-0.102-0.066-0.052-0.146c0.061-0.098 0.023-0.12-0.114-0.068-0.112 0.043-0.233 0.032-0.267-0.024s0.057-0.096 0.204-0.088c0.147 0.008 0.291 0.084 0.32 0.17zM22.867 21.97c-0.35 0.245-0.594 0.025-0.299-0.269 0.163-0.163 0.247-0.177 0.386-0.062 0.15 0.124 0.136 0.175-0.086 0.331zM24.125 21.632c0 0.073 0.063 0.093 0.141 0.045 0.101-0.063 0.105-0.024 0.014 0.14-0.198 0.354-0.625 0.332-0.556-0.027 0.054-0.284 0.401-0.42 0.401-0.158zM21.208 21.708c-0.144 0.144-0.091 0.292 0.104 0.292 0.103 0 0.188-0.084 0.188-0.188 0-0.195-0.148-0.248-0.292-0.104zM32.875 22.009c0 0.041-0.084 0.074-0.188 0.074s-0.16-0.028-0.126-0.061-0.008-0.146-0.094-0.249c-0.137-0.166-0.122-0.167 0.126-0.013 0.155 0.096 0.281 0.209 0.281 0.249zM28.938 22.124c-0.064 0.201-0.035 0.234 0.148 0.171 0.197-0.068 0.194-0.053-0.022 0.115-0.137 0.106-0.294 0.165-0.349 0.131s-0.169-0.006-0.252 0.063c-0.103 0.086-0.223 0.073-0.378-0.041-0.257-0.188 0.141-0.421 0.423-0.246 0.075 0.046 0.165-0.033 0.203-0.179 0.038-0.145 0.122-0.263 0.188-0.263s0.083 0.112 0.040 0.249zM41.25 21.927c0 0.029 0.038 0.151 0.084 0.271 0.060 0.158 0.039 0.191-0.077 0.119-0.092-0.057-0.201-0.033-0.256 0.055-0.059 0.095-0.095 0.030-0.095-0.172 0-0.193 0.070-0.326 0.172-0.326 0.095 0 0.172 0.023 0.172 0.052zM24.853 22.344c-0.021 0.28-0.086 0.344-0.352 0.344-0.313 0-0.319-0.013-0.154-0.344 0.094-0.189 0.253-0.344 0.352-0.344 0.12 0 0.172 0.116 0.154 0.344zM38.5 22.336c0 0.246-0.301 0.137-0.353-0.128-0.028-0.145 0.019-0.185 0.156-0.133 0.108 0.041 0.197 0.158 0.197 0.26zM21.11 22.384c-0.174 0.108-0.36 0.041-0.36-0.13 0-0.058 0.117-0.075 0.261-0.038 0.19 0.050 0.217 0.095 0.1 0.168zM42 22.563c0 0.172-0.056 0.313-0.125 0.313-0.14 0-0.171-0.412-0.042-0.542 0.138-0.138 0.167-0.098 0.167 0.229zM43.75 22.499c0 0.060-0.118 0.147-0.263 0.193-0.247 0.078-0.239 0.097 0.125 0.319 0.213 0.13 0.388 0.316 0.388 0.415s0.034 0.268 0.076 0.377c0.042 0.109 0.014 0.198-0.062 0.198s-0.138-0.084-0.138-0.188c0-0.125-0.125-0.188-0.375-0.188-0.206 0-0.375 0.056-0.375 0.125s-0.059 0.125-0.132 0.125-0.101-0.052-0.062-0.114c0.039-0.063 0.001-0.138-0.085-0.166-0.124-0.041-0.124-0.122 0.001-0.395 0.086-0.189 0.119-0.404 0.073-0.478-0.050-0.080-0.025-0.099 0.061-0.046 0.079 0.049 0.144 0.026 0.144-0.051s0.050-0.109 0.112-0.071c0.061 0.038 0.145-0.018 0.187-0.126 0.074-0.193 0.327-0.139 0.327 0.070zM27.571 22.697c-0.115 0.115-0.244 0.173-0.287 0.13s0.030-0.158 0.162-0.255c0.311-0.227 0.394-0.144 0.125 0.125zM30.933 22.508c-0.031 0.050 0.028 0.123 0.131 0.163s0.187 0.118 0.187 0.174c0 0.156-0.612 0.094-0.785-0.080-0.121-0.122-0.107-0.136 0.067-0.070 0.16 0.061 0.201 0.034 0.151-0.097-0.041-0.108 0.006-0.181 0.118-0.181 0.103 0 0.162 0.041 0.131 0.091zM25.545 22.813c-0.040 0.103-0.143 0.188-0.231 0.188-0.243 0-0.49 0.337-0.295 0.402 0.095 0.032 0.107 0.082 0.031 0.129-0.192 0.119-0.443-0.091-0.361-0.303 0.055-0.143 0.612-0.511 0.901-0.596 0.015-0.004-0.005 0.076-0.044 0.18zM19.54 23.406c-0.121 0.209-0.496 0.324-0.671 0.205-0.156-0.105-0.155-0.119 0.007-0.101 0.363 0.039 0.511-0.011 0.491-0.166-0.047-0.365 0.027-0.53 0.128-0.281 0.055 0.137 0.076 0.292 0.047 0.343zM24.128 23.059c-0.175 0.212 0.143 0.645 0.371 0.504 0.069-0.043 0.125-0.032 0.124 0.023-0.004 0.202-0.192 0.352-0.483 0.384-0.259 0.029-0.276 0.007-0.133-0.166 0.197-0.237-0.035-0.451-0.37-0.341-0.109 0.036-0.030-0.080 0.176-0.257 0.424-0.364 0.541-0.419 0.315-0.147zM36.212 23.231c-0.099 0.113-0.21 0.291-0.248 0.394-0.045 0.123-0.072 0.091-0.079-0.094-0.005-0.155 0.046-0.281 0.115-0.281s0.118-0.042 0.11-0.094c-0.033-0.211 0.022-0.291 0.148-0.214 0.090 0.055 0.075 0.15-0.046 0.289zM34.033 23.718c-0.033 0.086 0.006 0.157 0.087 0.157 0.090 0 0.116 0.097 0.068 0.25-0.047 0.149-0.023 0.25 0.061 0.25 0.077 0 0.106-0.056 0.063-0.125s-0.018-0.125 0.055-0.125 0.118-0.051 0.101-0.113c-0.017-0.062 0.011-0.118 0.062-0.125 0.295-0.039 0.469 0.002 0.469 0.113 0 0.069-0.072 0.125-0.16 0.125-0.142 0-0.16 0.149-0.1 0.796 0.006 0.060 0.123 0.079 0.26 0.043s0.221-0.018 0.185 0.039c-0.035 0.058-0.007 0.141 0.065 0.184 0.194 0.12 0.022 0.311-0.289 0.321-0.264 0.009-0.265 0.013-0.024 0.116 0.214 0.092 0.218 0.109 0.031 0.116-0.12 0.005-0.219 0.077-0.219 0.16 0 0.093-0.085 0.065-0.219-0.070-0.202-0.205-0.203-0.23-0.011-0.339 0.13-0.074 0.182-0.212 0.14-0.373-0.037-0.14-0.097-0.225-0.133-0.189s-0.142 0.004-0.234-0.073c-0.092-0.076-0.169-0.090-0.17-0.030s-0.052 0.029-0.114-0.068c-0.064-0.101-0.066-0.299-0.004-0.46 0.059-0.156 0.063-0.301 0.008-0.323s-0.138-0.199-0.186-0.393c-0.074-0.301-0.060-0.329 0.090-0.188 0.097 0.091 0.149 0.235 0.116 0.322zM35.318 23.418c0.149-0.057 0.154-0.001 0.028 0.351-0.104 0.291-0.163 0.352-0.195 0.2-0.025-0.12-0.122-0.219-0.216-0.219s-0.211-0.065-0.26-0.144c-0.052-0.084-0.035-0.111 0.042-0.063 0.072 0.045 0.172-0.017 0.221-0.137 0.057-0.139 0.111-0.164 0.146-0.069 0.031 0.082 0.136 0.119 0.233 0.081zM26.658 23.45c0.153 0.153-0.058 0.395-0.291 0.334-0.249-0.065-0.305-0.18-0.159-0.326 0.104-0.104 0.35-0.108 0.45-0.009zM36.493 23.763c-0.171 0.32-0.243 0.299-0.243-0.071 0-0.221 0.052-0.288 0.185-0.237 0.14 0.054 0.154 0.129 0.058 0.309zM26.095 24.094c0.032 0.099-0.072 0.156-0.285 0.156-0.242 0-0.317 0.051-0.267 0.181 0.044 0.114 0.009 0.158-0.093 0.119-0.098-0.038-0.139-0.186-0.103-0.375 0.065-0.338 0.643-0.401 0.748-0.081zM33.875 24.263c0 0.061-0.060 0.112-0.133 0.112s-0.103 0.048-0.066 0.107c0.036 0.059-0.073 0.081-0.243 0.048-0.199-0.038-0.309-0.002-0.309 0.101 0 0.088-0.034 0.127-0.075 0.085s0.006-0.191 0.105-0.333c0.099-0.141 0.217-0.22 0.263-0.175s0.083 0.019 0.083-0.059c0-0.078 0.084-0.11 0.188-0.070s0.188 0.122 0.188 0.183zM22.262 24.663c-0.163 0.163-0.186-0.018-0.047-0.372 0.087-0.221 0.092-0.221 0.137 0.003 0.026 0.128-0.015 0.294-0.090 0.369zM23.236 24.299c0.192 0.107 0.248 0.196 0.156 0.253-0.078 0.048-0.142 0.037-0.142-0.026s-0.127-0.174-0.281-0.249c-0.155-0.075-0.225-0.137-0.156-0.14s0.259 0.070 0.423 0.161zM24.156 24.208c-0.264 0.106-0.187 0.454 0.084 0.383 0.169-0.044 0.221-0.011 0.174 0.11-0.086 0.224-0.221 0.22-0.413-0.012-0.179-0.216-0.083-0.569 0.151-0.554 0.125 0.008 0.126 0.023 0.004 0.073zM24.768 24.236c-0.118 0.075-0.128 0.133-0.031 0.193 0.076 0.047 0.194 0.051 0.262 0.009 0.071-0.044 0.092 0.006 0.049 0.118-0.098 0.257-0.206 0.245-0.385-0.043-0.152-0.243-0.099-0.39 0.14-0.387 0.075 0.001 0.059 0.050-0.034 0.109zM19.281 24.565c0.075 0.391-0.026 0.464-0.333 0.239-0.213-0.155-0.216-0.181-0.031-0.252 0.113-0.043 0.175-0.129 0.137-0.191s-0.016-0.112 0.049-0.112c0.065 0 0.145 0.142 0.178 0.315zM38.125 24.368c0 0.065-0.057 0.153-0.127 0.196s-0.090 0.145-0.044 0.226c0.063 0.113 0.045 0.113-0.077-0-0.088-0.081-0.126-0.236-0.085-0.344 0.081-0.212 0.333-0.271 0.333-0.078zM44.045 24.937c-0.076 0.198-0.295 0.26-0.295 0.083 0-0.132 0.136-0.271 0.267-0.271 0.055 0 0.068 0.084 0.028 0.187zM25.875 25.070c0 0.107-0.056 0.16-0.125 0.118s-0.13 0.024-0.135 0.149c-0.006 0.138-0.035 0.164-0.074 0.066-0.035-0.088 0.004-0.243 0.088-0.344 0.194-0.233 0.247-0.231 0.247 0.012zM36.228 25.453c-0.027 0.136-0.191 0.212-0.498 0.23-0.457 0.027-0.458 0.027-0.188-0.198 0.345-0.288 0.741-0.306 0.686-0.032zM29.601 25.841c-0.101 0.121-0.171 0.137-0.201 0.047-0.026-0.077-0.098-0.108-0.161-0.069s-0.114-0.009-0.114-0.107c0-0.122 0.098-0.159 0.315-0.117 0.263 0.050 0.29 0.091 0.161 0.246zM30.55 25.739c0.217 0.18 0.279 0.449 0.075 0.323-0.069-0.043-0.125-0.021-0.125 0.048s0.056 0.16 0.125 0.202c0.209 0.129 0.14 0.279-0.12 0.264-0.231-0.013-0.618-0.394-0.626-0.616-0.002-0.056 0.108-0.066 0.246-0.023 0.143 0.046 0.25 0.023 0.25-0.054 0-0.073-0.063-0.119-0.141-0.102s-0.165-0.035-0.195-0.115c-0.069-0.188 0.251-0.142 0.51 0.073zM41.375 25.75c-0.242 0.157-0.375 0.157-0.375 0 0-0.069 0.127-0.124 0.281-0.123 0.227 0.002 0.245 0.025 0.094 0.123zM42.793 26.031c-0.032 0.052-0.134 0.094-0.227 0.094s-0.197 0.070-0.23 0.156-0.055 0.044-0.049-0.094c0.008-0.171 0.099-0.25 0.288-0.25 0.152 0 0.25 0.042 0.218 0.094zM29.375 26.375c0.335 0.335 0.315 0.5-0.063 0.5-0.279 0-0.373 0.117-0.327 0.406 0.008 0.052-0.055 0.080-0.141 0.062-0.091-0.018-0.139 0.067-0.115 0.206 0.039 0.224 0.029 0.225-0.172 0.024-0.117-0.117-0.285-0.186-0.373-0.152-0.22 0.084-0.605-0.369-0.515-0.605 0.12-0.313 0.436-0.22 0.649 0.192 0.169 0.326 0.227 0.36 0.392 0.223 0.124-0.103 0.143-0.177 0.054-0.207-0.087-0.029-0.035-0.195 0.138-0.442 0.168-0.239 0.197-0.331 0.075-0.233s-0.232 0.115-0.277 0.042c-0.067-0.109 0.091-0.231 0.333-0.257 0.052-0.005 0.206 0.103 0.344 0.24zM31.844 26.407c0.086-0.029 0.156 0.012 0.156 0.091 0 0.083 0.098 0.113 0.229 0.071 0.153-0.049 0.229-0.010 0.229 0.117 0 0.284-0.38 0.228-0.743-0.108-0.23-0.213-0.359-0.259-0.456-0.162s-0.135 0.095-0.135-0.005c0-0.209 0.295-0.279 0.438-0.104 0.069 0.084 0.195 0.129 0.281 0.1zM20.074 26.394c0.055 0.089 0.034 0.11-0.055 0.055-0.093-0.057-0.148 0.015-0.154 0.199-0.005 0.159-0.039 0.216-0.074 0.128-0.131-0.326 0.114-0.657 0.284-0.383zM40.675 27.042c0.056 0.232 0.041 0.327-0.045 0.274-0.072-0.044-0.13-0.227-0.13-0.406 0-0.392 0.060-0.347 0.175 0.133zM41.596 26.773c-0.075 0.227-0.305 0.259-0.305 0.043 0-0.105 0.080-0.191 0.177-0.191s0.155 0.067 0.127 0.148zM20.658 27.095c-0.050 0.129-0.025 0.165 0.071 0.105 0.080-0.050 0.146-0.031 0.146 0.042 0 0.192-0.202 0.162-0.429-0.064-0.267-0.267-0.247-0.418 0.045-0.342 0.157 0.041 0.215 0.131 0.166 0.259zM21.375 27.015c0 0.169-0.202 0.132-0.367-0.067-0.121-0.146-0.101-0.166 0.11-0.11 0.141 0.037 0.257 0.117 0.257 0.178zM20.364 27.354c0.179 0.15 0.177 0.16-0.020 0.098-0.12-0.038-0.219-0.016-0.219 0.048s-0.094 0.081-0.209 0.037c-0.213-0.081-0.212-0.078 0.047 0.558 0.043 0.105-0.005 0.131-0.144 0.077-0.145-0.056-0.229-0.001-0.276 0.177-0.037 0.142-0.146 0.288-0.243 0.325-0.229 0.088-0.225-0.103 0.005-0.294 0.099-0.082 0.149-0.23 0.111-0.329-0.051-0.133-0.008-0.157 0.164-0.093 0.207 0.078 0.213 0.064 0.057-0.129-0.126-0.155-0.138-0.255-0.041-0.351 0.074-0.074 0.101-0.227 0.059-0.339-0.066-0.177-0.048-0.181 0.135-0.032s0.212 0.141 0.221-0.063c0.008-0.179 0.027-0.19 0.083-0.047 0.040 0.103 0.162 0.262 0.271 0.354zM22.589 27.375c-0.036 0.137-0.014 0.281 0.048 0.32s0.111 0.137 0.109 0.219-0.061 0.050-0.131-0.070c-0.070-0.12-0.209-0.219-0.309-0.219-0.222 0-0.242-0.33-0.025-0.417 0.299-0.121 0.372-0.081 0.308 0.167zM41.254 27.5c0.148 0.286 0.145 0.298-0.046 0.141-0.114-0.094-0.208-0.258-0.208-0.365 0-0.227 0.036-0.195 0.254 0.224zM18.799 27.45c0.174 0.067 0.175 0.095 0.004 0.265-0.105 0.105-0.23 0.148-0.278 0.096s-0.011-0.122 0.083-0.155c0.144-0.051 0.144-0.077 0-0.169-0.197-0.125-0.091-0.146 0.191-0.037zM39.444 27.489c-0.039 0.063 0 0.14 0.086 0.17s0.114 0.102 0.061 0.159c-0.131 0.14-0.39-0.138-0.286-0.307 0.046-0.075 0.112-0.136 0.147-0.136s0.031 0.051-0.008 0.114zM27.955 27.904c-0.231 0.149-0.455 0.109-0.455-0.081 0-0.231 0.267-0.316 0.452-0.145 0.108 0.1 0.109 0.158 0.003 0.226zM29.291 27.656c-0.055 0.086-0.1 0.207-0.101 0.269s-0.101 0.128-0.221 0.145c-0.136 0.020-0.188-0.023-0.137-0.113 0.165-0.29 0.327-0.458 0.441-0.458 0.064 0 0.073 0.070 0.018 0.156zM29.625 28.46c0 0.159-0.025 0.158-0.188-0.005-0.103-0.103-0.187-0.218-0.187-0.255s0.084-0.035 0.187 0.005c0.103 0.040 0.188 0.154 0.188 0.255zM20.5 28.575c0 0.152-0.031 0.156-0.174 0.024-0.096-0.089-0.148-0.204-0.116-0.257 0.087-0.143 0.291 0.021 0.291 0.233zM30.75 29c0 0.139-0.083 0.25-0.188 0.25s-0.188-0.111-0.188-0.25c0-0.139 0.083-0.25 0.188-0.25s0.188 0.111 0.188 0.25zM23.5 30.577c0 0.229-0.045 0.219-0.305-0.069-0.21-0.232-0.208-0.239 0.043-0.173 0.144 0.038 0.261 0.146 0.261 0.241zM23.236 31.012c-0.294 0.186-0.466 0.128-0.398-0.134 0.054-0.205 0.107-0.224 0.318-0.111 0.203 0.109 0.219 0.157 0.080 0.245zM45.327 31.634c0.010 0.202-0.031 0.366-0.092 0.366s-0.11-0.206-0.11-0.458c0-0.532 0.175-0.452 0.202 0.092zM25.66 31.715c-0.075 0.195-0.075 0.195-0.275-0.19-0.139-0.267-0.132-0.276 0.096-0.134 0.135 0.084 0.215 0.23 0.18 0.324zM35.299 31.678c-0.092 0.24-0.395 0.344-0.502 0.172-0.052-0.084-0.029-0.104 0.059-0.050 0.085 0.053 0.144 0.010 0.144-0.106 0-0.107 0.083-0.195 0.184-0.195 0.108 0 0.155 0.074 0.115 0.178zM24.539 32.078c-0.052 0.137-0.109 0.145-0.241 0.035-0.248-0.206-0.213-0.35 0.069-0.276 0.146 0.038 0.214 0.134 0.173 0.242zM39.625 34.086c0 0.246-0.301 0.137-0.353-0.127-0.028-0.145 0.019-0.185 0.156-0.133 0.108 0.042 0.197 0.159 0.197 0.26zM41.426 35.143c-0.036 0.059-0.189 0.105-0.34 0.103-0.242-0.003-0.249-0.018-0.060-0.128 0.126-0.073 0.186-0.213 0.146-0.34-0.058-0.184-0.039-0.181 0.126 0.022 0.107 0.13 0.164 0.285 0.128 0.344zM23.807 36.509c-0.093 0.15-0.432 0.151-0.432 0.002 0-0.136 0.271-0.25 0.408-0.172 0.053 0.030 0.063 0.107 0.024 0.171zM35.125 37.173c0 0.026-0.084 0.209-0.187 0.406-0.137 0.263-0.187 0.296-0.188 0.126-0.001-0.138-0.066-0.207-0.161-0.171s-0.161-0.033-0.161-0.174c0-0.175 0.090-0.236 0.348-0.236 0.191 0 0.348 0.022 0.348 0.048zM36.453 37.597c-0.176 0.173-0.212 0.178-0.18 0.028 0.044-0.21 0.251-0.393 0.341-0.303 0.032 0.032-0.040 0.156-0.161 0.275zM35.178 38.172c0.205 0.106 0.27 0.194 0.171 0.228-0.089 0.031-0.26-0.046-0.38-0.172-0.262-0.274-0.227-0.283 0.209-0.056zM25.219 38.655c-0.021 0.062-0.091 0.114-0.157 0.114s-0.136-0.051-0.157-0.114 0.050-0.114 0.157-0.114c0.107 0 0.177 0.051 0.157 0.114zM27.814 40.377c0.043 0.070 0.14 0.089 0.214 0.043 0.081-0.050 0.1-0.026 0.046 0.061-0.084 0.136-0.574-0.012-0.574-0.173 0-0.11 0.235-0.058 0.314 0.069zM29.242 40.663c0.126-0.033 0.259-0.013 0.295 0.046s-0.14 0.105-0.392 0.105c-0.293-0.001-0.447 0.053-0.428 0.15 0.018 0.093-0.049 0.121-0.177 0.072-0.139-0.053-0.177-0.031-0.116 0.067 0.131 0.212 0.009 0.179-0.18-0.048-0.089-0.107-0.11-0.185-0.047-0.173 0.252 0.048 0.438-0.014 0.371-0.123-0.039-0.064 0.028-0.136 0.149-0.161s0.237-0.007 0.257 0.040 0.141 0.058 0.267 0.025zM25.313 49c-0.071 0.115 0.1 0.181 0.353 0.137 0.057-0.010 0.070 0.035 0.031 0.099-0.044 0.071-0.218 0.062-0.443-0.023-0.249-0.094-0.321-0.172-0.218-0.237 0.216-0.137 0.369-0.124 0.278 0.024z"></path>
</svg>
