<!-- Generated by IcoMoon.io -->
<svg version="1.1" xmlns="http://www.w3.org/2000/svg" width="128" height="128" viewBox="0 0 128 128">
<title>image2vector</title>
<path fill="#fff" d="M64 18.244c-0.474 0.285-1.581 1.148-2.462 1.918-1.944 1.7-5.731 4.975-10.831 9.366-2.099 1.807-4.48 3.865-5.292 4.574s-3.6 3.124-6.195 5.37l-4.718 4.082-28.262 0.139-0.891 0.611c-0.49 0.336-1.147 1.056-1.459 1.6l-0.567 0.989v35.446l0.616 1.1c0.376 0.671 1 1.317 1.6 1.658l0.984 0.557 27.429 0.008 0.932 0.8c0.512 0.44 0.987 0.856 1.055 0.924 0.13 0.132 6.748 5.84 7.989 6.891 0.4 0.338 1.231 1.065 1.846 1.615s2.725 2.376 4.688 4.060c1.963 1.683 3.625 3.117 3.693 3.186 0.13 0.132 1.69 1.484 6.521 5.653 4.016 3.466 5.63 3.967 7.875 2.447 2.023-1.37 1.85 2.983 1.85-46.481v-43.889l-0.551-0.98c-1.124-2-3.941-2.791-5.849-1.643zM79.371 49.464c-0.549 0.245-1.178 0.719-1.398 1.056s-0.602 0.812-0.848 1.057c-0.546 0.544-1.054 2.144-1.059 3.334-0.009 2.127 0.555 2.97 4.959 7.407 4.587 4.621 4.459 4.368 2.817 5.597-0.257 0.192-0.644 0.566-0.862 0.83-0.623 0.758-0.871 1-1.703 1.657-0.429 0.338-0.781 0.754-0.782 0.923s-0.085 0.308-0.186 0.31c-0.578 0.007-3.484 3.358-3.92 4.52-1.434 3.823 1.619 8.032 5.826 8.032 2.582 0 3.090-0.316 7.36-4.576 2.113-2.109 3.971-3.941 4.129-4.072 0.202-0.168 1.477 0.957 4.321 3.812 2.575 2.585 4.374 4.193 4.974 4.444 1.776 0.742 5.803 0.354 5.803-0.559 0-0.198 0.067-0.294 0.148-0.213 0.332 0.332 1.822-1.416 2.213-2.597 1.129-3.398 0.516-4.711-4.621-9.906l-3.9-3.944 3.829-3.81c4.699-4.675 4.92-5.036 4.903-7.994-0.015-2.612-0.48-3.559-2.448-4.993-1.034-0.754-5.28-1.163-5.662-0.545-0.084 0.135-0.339 0.25-0.568 0.254-0.495 0.010-1.524 0.82-1.524 1.201 0 0.148-0.084 0.268-0.186 0.268-0.172 0-3.68 3.366-4.904 4.706-0.294 0.322-0.907 0.944-1.362 1.382l-0.826 0.795-3.93-3.951c-5.088-5.114-7.126-5.965-10.59-4.422z"></path>
</svg>
