<!-- Generated by IcoMoon.io -->
<svg version="1.1" xmlns="http://www.w3.org/2000/svg" width="36" height="36" viewBox="0 0 36 36">
<title>mute</title>
<path fill="#b3b3b3" d="M18.405 2.387c-0.445 0-0.831 0.163-1.156 0.488l-8.556 8.556h-6.732c-0.446 0-0.831 0.163-1.156 0.488s-0.488 0.711-0.488 1.156v9.865c0 0.445 0.163 0.831 0.488 1.156s0.711 0.488 1.156 0.488h6.732l8.556 8.556c0.326 0.325 0.711 0.488 1.156 0.488s0.831-0.163 1.156-0.488 0.488-0.711 0.488-1.156v-27.955c0-0.445-0.163-0.831-0.488-1.156s-0.711-0.488-1.156-0.488z"></path>
<path fill="#b3b3b3" d="M31.902 18.679l3.468-3.468c0.22-0.22 0.33-0.488 0.33-0.802s-0.11-0.582-0.33-0.802l-1.604-1.604c-0.22-0.22-0.488-0.33-0.802-0.33s-0.582 0.11-0.802 0.33l-3.468 3.468-3.468-3.468c-0.22-0.22-0.488-0.33-0.802-0.33s-0.582 0.11-0.802 0.33l-1.604 1.604c-0.22 0.22-0.33 0.488-0.33 0.802s0.11 0.582 0.33 0.802l3.468 3.468-3.468 3.468c-0.22 0.22-0.33 0.488-0.33 0.802s0.11 0.582 0.33 0.802l1.604 1.604c0.22 0.22 0.488 0.33 0.802 0.33s0.582-0.11 0.802-0.33l3.468-3.468 3.468 3.468c0.22 0.22 0.487 0.33 0.802 0.33s0.582-0.11 0.802-0.33l1.604-1.604c0.22-0.22 0.33-0.488 0.33-0.802s-0.11-0.582-0.33-0.802l-3.468-3.468z"></path>
</svg>
