<!-- Generated by IcoMoon.io -->
<svg version="1.1" xmlns="http://www.w3.org/2000/svg" width="36" height="36" viewBox="0 0 36 36">
<title>pause</title>
<path fill="#b3b3b3" d="M15.047 34.594v-33.194c0-0.618-0.498-1.116-1.126-1.116h-6.607c-0.628 0-1.126 0.498-1.126 1.116v33.194c0 0.618 0.498 1.126 1.126 1.126h6.607c0.628 0 1.126-0.498 1.126-1.126z"></path>
<path fill="#b3b3b3" d="M28.687 0.281h-6.607c-0.618 0-1.126 0.498-1.126 1.116v33.194c0 0.618 0.498 1.126 1.126 1.126h6.607c0.618 0 1.126-0.498 1.126-1.126v-33.194c0-0.618-0.498-1.116-1.126-1.116z"></path>
</svg>
