<svg width="42" height="42" viewBox="0 0 42 42" fill="none" xmlns="http://www.w3.org/2000/svg">
<path fill-rule="evenodd" clip-rule="evenodd" d="M6.00003 10.3333C5.33336 9.06666 3.33336 8.26666 5.00003 6.46666C3.13336 5.93333 2.2667 4.33333 2.53336 2.8C2.73336 1.6 4.53336 0.199997 5.80003 0.199997C7.33336 0.199997 8.4667 1.4 8.80003 3C9.53336 2.73333 9.80003 2.46666 10.2667 2.6C10.7334 2.73333 11.3334 3.46666 11.6667 3.86666C12.2 4.53333 12.6667 4.73333 13.5334 4.4C28.4 1.13333 40 30.9333 39.3334 41.7333C32.1334 42 -2.06664 26.5333 6.00003 10.3333ZM7.73336 3.6C7.6667 2.46666 7.00003 1.66666 6.00003 1.6C4.8667 1.53333 3.8667 2.33333 3.93336 3.53333C4.00003 4.66666 4.73336 5.4 5.73336 5.4C6.80003 5.33333 7.6667 4.4 7.73336 3.6Z" fill="white"/>
</svg>
