<svg width="220" height="82" viewBox="0 0 220 82" fill="none" xmlns="http://www.w3.org/2000/svg">
<g clip-path="url(#clip0_2_149)">
<path d="M113.582 27.1603L124.048 26.4813C124.287 28.1988 124.725 29.4769 125.441 30.3955C126.596 31.8334 128.187 32.5524 130.297 32.5524C131.849 32.5524 133.083 32.1929 133.918 31.434C134.714 30.8349 135.192 29.8763 135.192 28.8778C135.192 27.9192 134.754 27.0005 133.998 26.4014C133.202 25.6824 131.331 24.9635 128.386 24.3244C123.571 23.246 120.109 21.8081 118.079 19.9708C116.049 18.2533 114.895 15.737 114.975 13.0609C114.975 11.2236 115.532 9.38629 116.567 7.86851C117.76 6.15103 119.392 4.79301 121.342 4.03412C123.452 3.11547 126.397 2.63617 130.098 2.63617C134.635 2.63617 138.097 3.47494 140.485 5.19243C142.873 6.86997 144.305 9.586 144.743 13.3006L134.396 13.8997C134.117 12.302 133.56 11.1437 132.645 10.3848C131.729 9.62594 130.535 9.26647 128.983 9.26647C127.71 9.26647 126.755 9.54606 126.118 10.0653C125.521 10.5446 125.123 11.2635 125.163 12.0624C125.163 12.6615 125.481 13.2207 125.959 13.5802C126.476 14.0595 127.71 14.4988 129.66 14.8982C134.475 15.9367 137.898 16.9752 140.007 18.0536C142.117 19.132 143.629 20.4501 144.544 22.0078C145.499 23.6055 145.977 25.4428 145.937 27.32C145.937 29.5568 145.3 31.7935 144.027 33.6708C142.713 35.6279 140.883 37.1457 138.734 38.0643C136.465 39.0629 133.6 39.5821 130.177 39.5821C124.128 39.5821 119.949 38.4238 117.601 36.0672C115.253 33.7107 113.86 30.755 113.582 27.1603ZM2.50724 38.983V3.27523H20.8538C24.2366 3.27523 26.8632 3.55482 28.6541 4.15395C30.4052 4.71313 31.9573 5.87143 32.992 7.42916C34.1462 9.14664 34.7033 11.1437 34.6635 13.2207C34.7829 16.7355 32.992 20.0906 29.9276 21.8481C28.7337 22.5271 27.4204 23.0064 26.0673 23.246C27.0622 23.5256 28.0572 24.0049 28.9327 24.5641C29.6093 25.1233 30.1664 25.7623 30.6838 26.4413C31.2808 27.1203 31.7981 27.8792 32.2359 28.6781L37.5687 39.0229H25.0724L19.1823 28.039C18.4262 26.641 17.7894 25.7224 17.1925 25.283C16.3965 24.7238 15.4414 24.4443 14.4863 24.4443H13.5311V38.943H2.50724V38.983ZM13.5311 17.7341H18.1874C19.1823 17.6542 20.1375 17.4944 21.0926 17.2548C21.809 17.135 22.4457 16.7355 22.8835 16.1364C23.958 14.6985 23.7988 12.6615 22.4855 11.4233C21.7692 10.8242 20.3763 10.5047 18.3864 10.5047H13.5311V17.7341ZM0 69.5782L10.4667 68.8992C10.7055 70.6167 11.1433 71.8948 11.8596 72.8135C12.974 74.2514 14.6056 75.0103 16.7149 75.0103C18.267 75.0103 19.5007 74.6508 20.3365 73.8919C21.1324 73.2528 21.61 72.3342 21.61 71.3356C21.61 70.377 21.1722 69.4584 20.4161 68.8593C19.6201 68.1403 17.7496 67.4214 14.7648 66.7823C9.94935 65.7039 6.48698 64.266 4.45731 62.4287C2.42764 60.7112 1.27352 58.1949 1.35311 55.5188C1.35311 53.6815 1.91028 51.8442 2.94501 50.3264C4.13893 48.6089 5.77062 47.2509 7.7207 46.492C9.82996 45.5733 12.775 45.094 16.4761 45.094C21.013 45.094 24.4754 45.9328 26.8632 47.6503C29.2511 49.3678 30.644 52.0439 31.0818 55.7584L20.7344 56.3576C20.4559 54.7599 19.8987 53.6016 18.9834 52.8427C18.1078 52.0838 16.8741 51.7243 15.322 51.7643C14.0485 51.7643 13.0933 52.0439 12.4566 52.603C11.8198 53.0823 11.4617 53.8013 11.5014 54.6001C11.5014 55.1992 11.8198 55.7584 12.2974 56.1179C12.8148 56.5972 14.0485 57.0366 15.9986 57.436C20.814 58.4745 24.2366 59.5129 26.3459 60.5914C28.4551 61.6698 29.9674 62.9879 30.8828 64.5456C31.8379 66.1432 32.3155 67.9805 32.3155 69.8179C32.3155 72.0546 31.6389 74.2514 30.4052 76.1286C29.0919 78.0858 27.2612 79.6035 25.1122 80.5222C22.8437 81.5207 19.9783 82.04 16.5557 82.04C10.5065 82.04 6.32779 80.8817 3.97974 78.5251C1.63169 76.1286 0.318379 73.1729 0 69.5782H0Z" fill="white"/>
<path d="M52.9304 66.7822L62.5614 69.698C62.044 72.1344 60.9695 74.451 59.497 76.488C58.1439 78.2854 56.353 79.6834 54.3233 80.602C52.2539 81.5207 49.6272 82 46.4434 82C42.5831 82 39.3993 81.4408 36.9717 80.3224C34.5042 79.2041 32.395 77.207 30.6041 74.3711C28.8132 71.5353 27.9377 67.9006 27.9377 63.4671C27.9377 57.5558 29.4898 53.0024 32.6337 49.847C35.7777 46.6917 40.1953 45.094 45.9261 45.094C50.4232 45.094 53.9254 46.0126 56.5122 47.81C59.0592 49.6473 60.9695 52.4432 62.243 56.1977L52.5324 58.3546C52.2937 57.5158 51.9355 56.677 51.4579 55.9581C50.861 55.1193 50.1048 54.4803 49.1895 54.001C48.2741 53.5217 47.2394 53.322 46.2047 53.322C43.6974 53.322 41.7871 54.3205 40.4738 56.3575C39.4789 57.8353 38.9615 60.1919 38.9615 63.3872C38.9615 67.3414 39.5585 70.0575 40.7524 71.5353C41.9463 73.0131 43.6178 73.7321 45.8067 73.7321C47.9159 73.7321 49.5078 73.133 50.5824 71.9747C51.6569 70.7365 52.4529 69.019 52.9304 66.7822ZM75.416 45.6931H86.4V58.1948H98.4188V45.6931H109.483V81.4009H98.4188V66.942H86.4V81.4009H75.416V45.6931Z" fill="white"/>
<path d="M107.97 63.547C107.97 57.7155 109.602 53.1622 112.826 49.9269C116.049 46.6917 120.586 45.0541 126.357 45.0541C132.287 45.0541 136.824 46.6517 140.047 49.8471C143.271 53.0424 144.863 57.5158 144.863 63.2674C144.863 67.4613 144.146 70.8563 142.753 73.5324C141.4 76.1685 139.291 78.3254 136.704 79.7633C134.038 81.2411 130.735 82 126.795 82C122.775 82 119.472 81.3609 116.845 80.0828C114.139 78.7248 111.91 76.6079 110.438 74.0117C108.806 71.2158 107.97 67.7409 107.97 63.547ZM118.955 63.587C118.955 67.1817 119.631 69.7779 120.944 71.3756C122.258 72.9333 124.088 73.7321 126.397 73.7321C128.745 73.7321 130.575 72.9732 131.889 71.4155C133.202 69.8578 133.839 67.1018 133.839 63.1077C133.839 59.7526 133.162 57.2762 131.809 55.7584C130.456 54.2007 128.625 53.4418 126.317 53.4418C124.287 53.3619 122.337 54.2406 120.984 55.7984C119.631 57.3561 118.955 59.9523 118.955 63.587ZM156.125 63.547C156.125 57.7155 157.757 53.1622 160.981 49.9269C164.204 46.6917 168.741 45.0541 174.512 45.0541C180.441 45.0541 185.018 46.6517 188.202 49.8471C191.386 53.0424 193.017 57.5158 193.017 63.2674C193.017 67.4613 192.301 70.8563 190.908 73.5324C189.555 76.1685 187.446 78.3254 184.859 79.7633C182.193 81.2411 178.889 82 174.949 82C170.93 82 167.627 81.3609 165 80.0828C162.294 78.7248 160.065 76.6079 158.593 74.0117C156.961 71.2158 156.125 67.7409 156.125 63.547ZM167.109 63.587C167.109 67.1817 167.786 69.7779 169.099 71.3756C170.413 72.9333 172.243 73.7321 174.551 73.7321C176.9 73.7321 178.73 72.9732 180.044 71.4155C181.357 69.8578 181.994 67.1018 181.994 63.1077C181.994 59.7526 181.317 57.2762 179.964 55.7584C178.611 54.2007 176.78 53.4418 174.472 53.4418C172.442 53.3619 170.452 54.2406 169.139 55.7984C167.786 57.3561 167.109 59.9523 167.109 63.587Z" fill="white"/>
<path d="M191.863 45.6931H202.847V72.6137H220V81.4009H191.823V45.6931H191.863Z" fill="white"/>
<path d="M179.757 43.6324C190.815 35.2686 194.225 21.0907 187.373 11.9652C180.521 2.83957 166.002 2.22199 154.943 10.5857C143.884 18.9495 140.474 33.1274 147.326 42.253C154.178 51.3786 168.698 51.9962 179.757 43.6324Z" fill="white"/>
<path d="M119.124 22.5832L176.27 -20.6371L215.813 32.027L158.667 75.2473L119.124 22.5832Z" fill="#192F2D"/>
<path d="M179.757 43.6325C190.815 35.2687 194.225 21.0908 187.373 11.9652C180.521 2.83963 166.002 2.22205 154.943 10.5858C143.884 18.9496 140.474 33.1275 147.326 42.2531C154.178 51.3787 168.698 51.9962 179.757 43.6325Z" fill="#192F2D"/>
<path d="M135.037 26.0998L175.052 -4.16333L199.889 28.9157L159.874 59.1788L135.037 26.0998Z" fill="#192F2D"/>
<path d="M179.757 43.6324C190.815 35.2686 194.225 21.0907 187.373 11.9652C180.521 2.83957 166.002 2.22199 154.943 10.5857C143.884 18.9495 140.474 33.1274 147.326 42.253C154.178 51.3786 168.698 51.9962 179.757 43.6324Z" fill="#192F2D" stroke="white" stroke-width="4" stroke-miterlimit="10"/>
<path d="M135.037 26.0998L175.052 -4.16333L199.889 28.9157L159.874 59.1788L135.037 26.0998Z" stroke="white" stroke-width="4" stroke-miterlimit="10"/>
<path d="M179.757 43.6325C190.815 35.2687 194.225 21.0908 187.373 11.9652C180.521 2.83963 166.002 2.22205 154.943 10.5858C143.884 18.9496 140.474 33.1275 147.326 42.2531C154.178 51.3787 168.698 51.9962 179.757 43.6325Z" stroke="white" stroke-width="4" stroke-miterlimit="10"/>
<path d="M135.037 26.0998L175.052 -4.16333L199.889 28.9157L159.874 59.1788L135.037 26.0998Z" fill="#192F2D"/>
<path d="M179.757 43.6324C190.815 35.2686 194.225 21.0907 187.373 11.9652C180.521 2.83957 166.002 2.22199 154.943 10.5857C143.884 18.9495 140.474 33.1274 147.326 42.253C154.178 51.3786 168.698 51.9962 179.757 43.6324Z" fill="#192F2D" stroke="white" stroke-width="4" stroke-miterlimit="10"/>
<path d="M135.037 26.0998L175.052 -4.16333L199.889 28.9157L159.874 59.1788L135.037 26.0998Z" stroke="white" stroke-width="4" stroke-miterlimit="10"/>
<path d="M119.124 22.5832L176.27 -20.6371L215.813 32.027L158.667 75.2473L119.124 22.5832Z" stroke="white" stroke-width="4" stroke-miterlimit="10"/>
<path d="M179.757 43.6325C190.815 35.2687 194.225 21.0908 187.373 11.9652C180.521 2.83963 166.002 2.22205 154.943 10.5858C143.884 18.9496 140.474 33.1275 147.326 42.2531C154.178 51.3787 168.698 51.9962 179.757 43.6325Z" stroke="white" stroke-width="4" stroke-miterlimit="10"/>
<path d="M156.165 24.4842L160.145 21.6883L165.04 28.678C165.876 29.7964 166.512 30.9947 166.99 32.3127C167.269 33.3113 167.189 34.3897 166.791 35.3483C166.274 36.5465 165.438 37.5451 164.323 38.264C163.01 39.1827 161.896 39.7019 160.941 39.8617C160.025 40.0214 159.07 39.8617 158.195 39.4623C157.24 38.983 156.404 38.304 155.767 37.4252L159.19 34.2299C159.468 34.6693 159.826 35.0687 160.224 35.3882C160.503 35.5879 160.821 35.7078 161.18 35.7078C161.458 35.7078 161.737 35.5879 161.936 35.4282C162.334 35.1885 162.612 34.7092 162.572 34.2299C162.453 33.5509 162.174 32.8719 161.737 32.3527L156.165 24.4842ZM168.104 28.9177L171.726 26.0419C172.124 26.5212 172.641 26.8807 173.198 27.0804C173.994 27.32 174.83 27.1603 175.507 26.641C175.984 26.3215 176.382 25.8821 176.541 25.323C176.78 24.604 176.382 23.8052 175.666 23.5655C175.546 23.5256 175.427 23.4856 175.308 23.4856C174.83 23.4457 173.994 23.6454 172.761 24.1646C170.731 25.0034 169.139 25.323 167.945 25.2031C166.791 25.0833 165.716 24.4842 165.08 23.4856C164.602 22.8066 164.363 22.0078 164.323 21.209C164.323 20.2903 164.562 19.3717 165.08 18.6128C165.836 17.5344 166.751 16.6157 167.865 15.8967C169.537 14.7384 171.009 14.1793 172.283 14.1793C173.556 14.1793 174.75 14.7784 175.865 16.0166L172.283 18.8524C171.567 17.9338 170.214 17.7341 169.298 18.453L169.179 18.5728C168.781 18.8125 168.502 19.172 168.343 19.6113C168.224 19.9308 168.303 20.2903 168.502 20.5699C168.661 20.7696 168.9 20.9294 169.179 20.9294C169.497 20.9693 170.054 20.8096 170.85 20.4501C172.84 19.6113 174.352 19.132 175.387 18.9722C176.263 18.8125 177.178 18.8924 178.014 19.2518C178.77 19.5714 179.407 20.1306 179.844 20.8096C180.402 21.6084 180.72 22.567 180.76 23.5655C180.8 24.604 180.521 25.6025 179.964 26.4813C179.248 27.5597 178.332 28.4783 177.258 29.1973C175.069 30.7151 173.278 31.3541 171.845 31.1145C170.293 30.8748 169.02 30.076 168.104 28.9177Z" fill="white"/>
</g>
<defs>
<clipPath id="clip0_2_149">
<rect width="220" height="82" fill="white"/>
</clipPath>
</defs>
</svg>
