<!-- Generated by IcoMoon.io -->
<svg version="1.1" xmlns="http://www.w3.org/2000/svg" width="128" height="128" viewBox="0 0 128 128">
<title>snow</title>
<path fill="#fff" d="M61.873 8.408c-1.257 0.297-2.754 1.479-3.479 2.747-0.24 0.421-0.498 3.22-0.606 6.583l-0.188 5.851-1.097-1.28c-4.324-5.045-6.001-5.957-9.453-5.146-5.089 1.197-5.714 6.791-1.316 11.786 3.503 3.978 5.234 5.96 7.295 8.348 1.106 1.282 2.627 3.001 3.378 3.82l1.367 1.49 0.009 9.751-1.188-0.713c-1.749-1.049-5.237-2.941-8.041-4.362-2.471-1.252-3.571-2.308-3.571-3.429 0-0.331-0.306-1.405-0.679-2.387-1.018-2.676-1.922-5.309-2.246-6.54-2.307-8.774-4.516-11.886-8.434-11.886-4.556 0-7.424 4.499-5.644 8.855 0.353 0.862 0.765 2.062 0.918 2.665s0.403 1.406 0.558 1.783c0.22 0.536-0.349 0.344-2.609-0.879-7.756-4.199-7.458-4.082-9.897-3.902-3.62 0.267-5.611 2.332-5.611 5.82 0 3.377 1.108 4.45 8.96 8.675 2.902 1.562 3.161 1.852 1.652 1.852-4.691 0-8.813 2.411-9.327 5.456-0.974 5.766 2.682 8.468 9.525 7.042 2.1-0.438 5.588-1.139 7.75-1.559s5.395-1.078 7.184-1.464c1.969-0.424 3.413-0.571 3.657-0.373 0.222 0.18 0.98 0.642 1.684 1.027 5.020 2.742 7.68 4.295 7.68 4.486 0 0.271-4.588 2.938-5.054 2.938-0.183 0-0.784 0.355-1.336 0.79-1.223 0.962-2.425 0.952-7.128-0.061-1.918-0.413-5.050-1.065-6.962-1.449s-4.709-0.957-6.217-1.274c-3.498-0.734-4.122-0.719-5.775 0.136-5.867 3.035-3.995 10.951 2.815 11.901 4.483 0.625 4.841 0.833 3.051 1.764-0.553 0.288-2.323 1.23-3.931 2.092s-3.507 1.86-4.217 2.216c-6.174 3.095-5.203 11.342 1.407 11.941 2.287 0.207 2.936-0.007 7.199-2.379 1.408-0.783 3.514-1.947 4.68-2.584l2.12-1.16-0.257 1.373c-0.142 0.755-0.558 2.033-0.924 2.839-2.409 5.303 1.64 10.772 6.922 9.35 3.326-0.895 3.454-1.139 8.536-16.294 2.289-6.825 1.372-5.891 10.465-10.66l2.285-1.199v14.423l-2.060 2.374c-1.133 1.306-2.984 3.43-4.114 4.72s-2.383 2.721-2.786 3.18c-0.402 0.459-1.554 1.766-2.56 2.902-4.552 5.146-4.739 8.965-0.577 11.769 2.928 1.974 6.198 0.906 9.59-3.13l2.325-2.766 0.194 4.918c0.27 6.826 1.48 8.53 6.060 8.53 4.624 0 5.993-1.981 6.009-8.694l0.011-4.792 0.943 1.097c5.19 6.038 8.83 7.133 12.189 3.668 3.313-3.418 1.696-7.846-5.425-14.864-0.329-0.325-1.504-1.639-2.61-2.921s-2.711-3.091-3.566-4.019l-1.554-1.689v-7.185c0-3.952 0.091-7.185 0.203-7.185s1.058 0.473 2.103 1.050c1.045 0.577 3.382 1.833 5.192 2.789 6.050 3.197 5.118 1.837 8.773 12.797 3.617 10.847 4.248 11.95 7.12 12.435 6.022 1.017 9.061-3.409 6.776-9.872-0.498-1.408-0.906-2.758-0.906-3.001-0.001-0.389 6.569 2.774 7.478 3.6 0.574 0.522 4.182 0.356 5.347-0.246 2.643-1.367 4.123-5.494 2.856-7.965-0.47-0.918-2.538-3.176-2.907-3.176-0.136 0-1.694-0.808-3.462-1.795l-3.214-1.795 1.43-0.397c0.787-0.219 1.771-0.398 2.187-0.399 4.389-0.012 8.013-3.91 7.15-7.691-0.942-4.125-3.797-5.584-8.946-4.572-5.249 1.032-9.836 1.962-13.475 2.733-4.73 1.002-5.788 0.959-8.074-0.325-1.053-0.591-3.069-1.702-4.479-2.469-4.774-2.594-4.71-2.213-0.727-4.334 2.566-1.366 5.397-2.898 7.945-4.298 1.336-0.734 1.418-0.737 4.388-0.12 1.665 0.346 4.672 0.965 6.684 1.375s5.009 1.060 6.661 1.444c6.838 1.59 10.71-0.362 10.71-5.398 0-3.775-1.237-5.015-6.328-6.345l-3.586-0.937 3.061-1.718c4.357-2.446 5.391-3.723 5.391-6.658 0-6.601-8.586-7.954-14.793-2.331-0.832 0.754-0.769 0.128 0.271-2.702 1.482-4.035 1.665-6.391 0.639-8.218-2.413-4.294-9.031-4.16-10.894 0.221-0.698 1.641-4.067 11.168-4.477 12.66-0.415 1.512-2.453 7.157-2.614 7.244-0.072 0.039-0.512 0.283-0.976 0.544s-1.946 1.064-3.291 1.786c-1.346 0.721-3.187 1.724-4.092 2.229-2.639 1.47-4.853 2.643-4.992 2.643-0.282 0-0.108-9.822 0.177-9.935 0.168-0.067 2.178-2.261 4.467-4.876s5.443-6.21 7.009-7.989l2.847-3.234v-2.561c0-3.982-2.053-6.148-5.827-6.148-2.519 0-3.037 0.303-6.144 3.596l-2.645 2.804-0.006-5.896-0.006-5.896-1.371-1.533c-1.766-1.974-3.751-2.532-6.607-1.856z"></path>
</svg>
