<svg width="42" height="42" viewBox="0 0 42 42" fill="none" xmlns="http://www.w3.org/2000/svg">
<g clip-path="url(#clip0_2_77)">
<path d="M19.9135 41.5691C19.5199 41.3141 19.1986 40.724 19.1986 40.2536V36.3367C19.1986 35.8701 18.8643 35.6777 18.4582 35.9045L16.8 36.8348C16.3926 37.0621 15.7252 37.0621 15.3216 36.8294L15.1986 36.7626C14.7907 36.5287 14.461 35.9545 14.461 35.4866V35.2073C14.461 34.742 14.7924 34.1678 15.1998 33.9373L18.3771 32.1342C18.7828 31.899 19.1159 31.3295 19.1159 30.8616V28.8725C19.1159 28.4021 18.7933 28.2257 18.3998 28.4777L16.4527 29.7305C16.0591 29.9809 15.7378 29.8078 15.7378 29.3395V27.127C15.7378 26.6587 15.406 26.4692 15.0016 26.7032L13.2468 27.7133C12.8411 27.9472 12.5093 28.5222 12.5093 28.9892V32.592C12.5093 33.0599 12.1834 33.6454 11.7869 33.8923L11.4677 34.0889C11.0691 34.3354 10.4253 34.3258 10.0338 34.07L9.95947 34.0179C9.57181 33.76 9.25135 33.167 9.25135 32.6966V30.8448C9.25135 30.3786 8.91787 30.1854 8.51047 30.4126L5.09083 32.3421C4.68511 32.5689 3.99925 32.6101 3.56791 32.4274L3.04123 32.2073C2.61199 32.0275 2.25793 31.4924 2.25793 31.0304V30.4857C2.25793 30.0191 2.59309 29.4538 3.00511 29.2291L6.65449 27.2336C7.06693 27.0094 7.05937 26.6528 6.64105 26.4411L4.94467 25.5893C4.52509 25.3798 4.18489 24.8241 4.18489 24.3558V24.0064C4.18489 23.5385 4.52215 22.9727 4.93207 22.7485L5.26387 22.5641C5.67463 22.3398 6.33991 22.3495 6.74311 22.5893L9.89059 24.4427C10.2946 24.6792 10.957 24.6821 11.3619 24.4482L13.0918 23.4507C13.498 23.2163 13.8113 23.0126 13.7911 22.995C13.7701 22.9765 13.419 22.7732 13.0129 22.5422L11.2136 21.5074C10.8075 21.2759 10.8003 20.8841 11.1968 20.6375L12.9335 19.5619C13.3296 19.3124 13.3258 18.9189 12.9192 18.6862L11.1997 17.6862C10.7944 17.456 10.1325 17.4594 9.73057 17.6929L6.58477 19.5434C6.18031 19.7803 5.50705 19.8009 5.08747 19.5943L4.87999 19.4905C4.46167 19.2818 4.11937 18.7307 4.11937 18.2603V17.9168C4.11937 17.4489 4.45285 16.8802 4.86193 16.6505L6.50035 15.7286C6.90901 15.5001 6.90439 15.1288 6.49447 14.9045L3.00553 13.0108C2.59477 12.7907 2.25835 12.2245 2.25835 11.7571V11.2161C2.25835 10.7499 2.59813 10.1926 3.01435 9.975L3.41587 9.76878C3.83293 9.5529 4.50577 9.5718 4.90981 9.80154L8.34793 11.7877C8.75323 12.0217 9.08419 11.8306 9.08419 11.3639V9.44958C9.08419 8.9817 9.40213 8.38572 9.78853 8.12448L9.85993 8.07618C10.2468 7.81326 10.8957 7.791 11.3026 8.02704L11.6424 8.22192C12.0473 8.45628 12.3787 9.03168 12.3757 9.49914L12.3678 13.2044C12.3678 13.6752 12.6979 14.246 13.1065 14.4803L14.9285 15.5194C15.3325 15.7538 15.6652 15.5593 15.6631 15.0914L15.6564 12.9709C15.6551 12.5013 15.9907 12.3022 16.4035 12.5223L18.3662 13.5765C18.7782 13.8008 19.1163 13.5983 19.1163 13.1305V11.1392C19.1163 10.6726 18.7828 10.0976 18.3775 9.86622L15.199 8.05686C14.7912 7.82544 14.4615 7.25298 14.4615 6.78636V6.5268C14.4615 6.05598 14.7916 5.481 15.1952 5.24706L15.3225 5.17398C15.7278 4.93752 16.3939 4.93332 16.8009 5.16474L18.4578 6.0963C18.8656 6.32772 19.1999 6.1299 19.1999 5.66286V1.75476C19.1999 1.2873 19.5178 0.695101 19.9097 0.436381L20.2843 0.192781C20.6749 -0.0617392 21.3163 -0.0659392 21.7098 0.189841L22.0937 0.441841C22.4872 0.694681 22.809 1.28688 22.809 1.75434V5.66118C22.809 6.1278 23.1454 6.32604 23.5528 6.1005L25.3168 5.12064C25.7267 4.89636 26.3806 4.92072 26.7721 5.1786L26.9871 5.3235C27.3769 5.5797 27.6969 6.17484 27.6969 6.64272V6.70614C27.6969 7.17276 27.3634 7.74942 26.9565 7.97916L23.6179 9.87C23.2117 10.0997 22.8804 10.6722 22.8804 11.1388V13.13C22.8804 13.5979 23.2063 13.7781 23.6053 13.5366L25.4482 12.4152C25.8456 12.1724 26.1732 12.353 26.1732 12.8209V15.1385C26.1732 15.6089 26.5117 15.8046 26.9216 15.5845L28.8192 14.5484C29.2316 14.3241 29.5676 13.7613 29.5676 13.2905V9.2064C29.5676 8.73558 29.9145 8.1963 30.3396 7.99638L30.432 7.95102C30.8557 7.7553 31.5525 7.74984 31.9809 7.9401L32.1426 8.01024C32.5706 8.2005 32.9217 8.73516 32.9217 9.2064V11.2018C32.9217 11.6714 33.2581 11.8747 33.6702 11.6508L37.2263 9.7293C37.6375 9.50754 38.3007 9.52686 38.7018 9.76626L39.0151 9.95904C39.4141 10.2026 39.7417 10.7831 39.7417 11.2539V11.6428C39.7417 12.1107 39.4086 12.6819 39.0042 12.9129L35.5467 14.8798C35.1389 15.1112 35.1423 15.49 35.5476 15.7198L37.149 16.6139C37.5589 16.8441 37.8937 17.414 37.8937 17.8815V18.1789C37.8937 18.6467 37.5581 19.215 37.1478 19.4393L37.0356 19.5044C36.6274 19.727 35.9629 19.719 35.5593 19.4821L32.2867 17.5459C31.8835 17.3095 31.2304 17.3204 30.8347 17.569L28.996 18.7417C28.6012 18.9886 28.6037 19.3981 28.9985 19.6442L30.7247 20.7203C31.1212 20.9693 31.1153 21.3629 30.7092 21.5956L28.9187 22.622C28.5155 22.8572 28.5201 23.2252 28.9351 23.444L30.7999 24.4209C31.2148 24.6368 31.8881 24.6271 32.2976 24.4003L35.5497 22.5821C35.9579 22.3566 36.6068 22.3898 36.9877 22.6594L37.12 22.7514C37.5027 23.0257 37.8139 23.6284 37.8139 24.092V24.3008C37.8139 24.7716 37.4808 25.3403 37.0713 25.5709L35.5824 26.4062C35.175 26.6347 35.1712 27.022 35.5744 27.258L38.8429 29.2013C39.2452 29.4407 39.5741 30.0187 39.5741 30.4853V30.9922C39.5741 31.4601 39.2268 32.0002 38.8017 32.1976L38.346 32.4072C37.9185 32.6012 37.2393 32.5689 36.8307 32.3366L33.6601 30.5327C33.2523 30.3013 32.9213 30.4954 32.9213 30.9641V32.7629C32.9213 33.2308 32.5878 33.8024 32.1766 34.0292L31.9923 34.1355C31.584 34.3623 30.9166 34.3581 30.513 34.1284L30.3547 34.0364C29.946 33.8024 29.6159 33.2308 29.6159 32.7634V29.1497C29.6159 28.6818 29.2841 28.1106 28.875 27.8771L26.9103 26.7586C26.5062 26.5272 26.1727 26.7208 26.1727 27.1879V29.1808C26.1727 29.6486 25.8451 29.8313 25.4461 29.5852L23.6049 28.4647C23.2063 28.2185 22.8799 28.4029 22.8799 28.8729V30.862C22.8799 31.3299 23.2113 31.8994 23.6175 32.1346L26.7943 33.9377C27.2013 34.1687 27.5348 34.7424 27.5348 35.2078V35.5996C27.5348 36.0679 27.19 36.6227 26.7729 36.8298L26.6877 36.8726C26.2706 37.0822 25.5931 37.0629 25.1862 36.8353L23.5477 35.9079C23.1412 35.6786 22.8077 35.8705 22.8077 36.3376V40.2545C22.8077 40.7249 22.4851 41.3154 22.0899 41.567L21.7086 41.8097C21.315 42.0659 20.6737 42.063 20.281 41.8097L19.9135 41.5691Z" fill="white"/>
</g>
<defs>
<clipPath id="clip0_2_77">
<rect width="42" height="42" fill="white"/>
</clipPath>
</defs>
</svg>
