<!-- Generated by IcoMoon.io -->
<svg version="1.1" xmlns="http://www.w3.org/2000/svg" width="32" height="32" viewBox="0 0 32 32">
<title>image2vector</title>
<path fill="#bdae82" d="M14.354 0.068c-0.215 0.016-0.618 0.067-0.896 0.113-6.997 1.159-12.257 6.485-13.37 13.538-0.086 0.546-0.108 3.705-0.030 4.334 0.831 6.696 6.065 12.302 12.731 13.636 1.902 0.38 4.307 0.393 6.159 0.032 8.736-1.703 14.326-9.961 12.708-18.772-1.228-6.686-6.785-11.904-13.669-12.837-0.477-0.065-2.967-0.095-3.633-0.045zM17.192 2.037c10.231 0.98 16.042 12.219 10.862 21.010-2.473 4.197-7.148 6.963-11.769 6.965l-0.35 0v-28.024h0.37c0.203 0 0.603 0.022 0.888 0.050z"></path>
</svg>
