<svg width="42" height="42" viewBox="0 0 42 42" fill="none" xmlns="http://www.w3.org/2000/svg">
<path d="M41.1397 10.8946C39.8196 9.93181 38.9 8.45165 38.5588 7.12476C37.712 4.22201 35.1937 2.07629 32.1385 1.65798L31.4493 1.56314C30.05 1.36831 28.6242 1.56544 27.3303 2.13262C26.0365 2.6998 24.9253 3.61478 24.1204 4.7758L21.5234 8.64641C15.2776 3.65044 11.3807 7.5456 6.49736 1.23375C4.91982 -0.80613 1.68683 -0.210001 0.918806 2.25496C0.141923 4.73098 -0.0908876 7.34562 0.236306 9.91996C0.262002 10.1239 0.333754 10.3193 0.44613 10.4914C0.558507 10.6634 0.708562 10.8077 0.884935 10.9132C5.40163 13.5958 10.3908 14.8499 15.6188 14.0073C15.7998 13.9782 15.9847 13.9861 16.1625 14.0306C16.3403 14.075 16.5073 14.1551 16.6532 14.2659C16.7992 14.3767 16.9212 14.516 17.0118 14.6753C17.1024 14.8347 17.1597 15.0107 17.1803 15.1928C17.2156 15.5438 17.1149 15.895 16.8988 16.1738C16.6828 16.4527 16.368 16.6381 16.0193 16.6916C11.744 17.375 7.39917 16.8483 3.16784 15.0937C3.03654 15.0383 2.89108 15.0256 2.75218 15.0576C2.61328 15.0896 2.48802 15.1646 2.39421 15.2719C2.3004 15.3793 2.24283 15.5134 2.2297 15.6554C2.21657 15.7973 2.24854 15.9397 2.32106 16.0625C4.24494 19.3403 7.30941 21.829 11.4213 23.0306L4.65731 32.7515C4.06675 33.6071 3.80427 34.6469 3.91795 35.6803C4.03163 36.7137 4.51387 37.6716 5.27631 38.3783C5.37079 38.4659 5.48282 38.5323 5.60496 38.5732C5.7271 38.6141 5.85654 38.6286 5.98469 38.6156C6.11284 38.6026 6.23677 38.5625 6.34822 38.498C6.45968 38.4334 6.55613 38.3459 6.63115 38.2412L11.8761 30.9716C11.9834 30.8229 12.1198 30.6975 12.277 30.603C12.4342 30.5085 12.6089 30.4469 12.7906 30.422C12.9723 30.3971 13.1572 30.4093 13.334 30.4579C13.5109 30.5065 13.676 30.5905 13.8194 30.7049C14.391 31.1587 14.4782 31.9962 14.0514 32.5881L8.58127 40.1701C8.50508 40.2753 8.45235 40.3956 8.42663 40.5229C8.40091 40.6502 8.40281 40.7815 8.43218 40.908C8.46156 41.0345 8.51774 41.1532 8.59692 41.2561C8.6761 41.3591 8.77645 41.4438 8.89119 41.5046C9.80243 41.984 10.8553 42.1208 11.8588 41.8902C12.8623 41.6597 13.7499 41.077 14.3605 40.248L17.7239 35.6831C17.9526 35.3695 18.2698 35.1315 18.6348 34.9995C18.9998 34.8674 19.3958 34.8475 19.7722 34.9421C29.1663 37.3224 37.5494 28.1976 34.1386 19.7366C33.49 18.1277 34.1022 15.4943 35.8161 15.1581L40.3954 14.2563C40.7539 14.1857 41.084 14.0122 41.3454 13.7569C41.6068 13.5016 41.7881 13.1756 41.867 12.8189C41.946 12.4621 41.9193 12.0901 41.7901 11.7484C41.6609 11.4066 41.4349 11.1099 41.1397 10.8946ZM31.1148 10.2561C30.8468 10.2561 30.5849 10.1767 30.3621 10.0278C30.1393 9.87892 29.9656 9.66733 29.8631 9.41976C29.7605 9.1722 29.7337 8.89978 29.786 8.63697C29.8382 8.37416 29.9673 8.13275 30.1568 7.94327C30.3462 7.75379 30.5876 7.62476 30.8505 7.57248C31.1133 7.52021 31.3857 7.54704 31.6333 7.64958C31.8808 7.75212 32.0924 7.92578 32.2413 8.14858C32.3902 8.37138 32.4696 8.63333 32.4696 8.90129C32.4696 9.26061 32.3269 9.60522 32.0728 9.8593C31.8187 10.1134 31.4741 10.2561 31.1148 10.2561Z" fill="white"/>
</svg>
