<svg id="svg" xmlns="http://www.w3.org/2000/svg" xmlns:xlink="http://www.w3.org/1999/xlink" width="400" height="400" viewBox="0, 0, 400,400"><g id="svgg"><path id="path0" d="M186.122 0.431 C 65.718 9.229,-19.683 121.126,3.905 239.184 C 25.517 347.350,131.065 417.747,239.184 396.104 C 347.400 374.442,417.679 269.060,396.098 160.816 C 376.490 62.465,285.744 -6.849,186.122 0.431 M214.490 32.654 C 302.118 40.623,367.551 112.164,367.551 200.000 C 367.551 260.166,337.247 313.686,285.755 344.458 C 276.139 350.205,253.238 360.408,249.955 360.408 C 249.867 360.408,249.795 352.464,249.794 342.755 C 249.792 314.928,247.203 306.267,236.337 297.730 L 233.810 295.745 239.456 295.037 C 289.377 288.785,315.663 265.608,322.011 222.245 C 326.378 192.419,321.438 169.989,306.605 152.297 C 303.748 148.890,303.804 149.097,304.884 145.958 C 309.072 133.785,308.626 118.051,303.670 103.148 L 301.980 98.066 299.868 97.812 C 289.294 96.542,272.088 102.930,253.297 115.103 C 248.878 117.965,249.565 117.883,243.188 116.318 C 216.923 109.871,184.404 109.878,158.624 116.337 C 152.411 117.894,153.457 118.113,146.799 113.861 C 131.748 104.251,117.134 98.490,105.918 97.746 C 99.920 97.349,99.980 97.306,98.003 103.383 C 93.021 118.696,92.645 133.512,96.918 146.141 L 97.918 149.099 95.873 151.386 C 84.650 163.939,78.910 179.753,78.477 199.318 C 77.201 256.882,105.123 288.489,163.135 295.151 L 167.699 295.675 164.231 298.920 C 153.824 308.657,151.864 316.240,151.845 346.837 C 151.840 355.016,151.682 360.816,151.463 360.816 C 150.687 360.816,138.820 356.564,134.701 354.810 C 80.102 331.561,41.784 281.740,33.686 223.469 C 20.356 127.547,89.971 40.692,186.735 32.520 C 190.672 32.187,210.408 32.283,214.490 32.654 " stroke="none" fill="#b6bfc7" fill-rule="evenodd"></path></g></svg>