<?xml version="1.0" ?><!DOCTYPE svg  PUBLIC '-//W3C//DTD SVG 1.1//EN'  'http://www.w3.org/Graphics/SVG/1.1/DTD/svg11.dtd'><svg enable-background="new 0 0 512 512" id="Layer_1" version="1.1" viewBox="0 0 512 512" xml:space="preserve" xmlns="http://www.w3.org/2000/svg" xmlns:xlink="http://www.w3.org/1999/xlink"><g id="Layer_1_1_"><circle cx="256" cy="256" fill="#313940" r="238.2"/></g><g id="Layer_2_1_"><g><path d="M289.1,334.2c1.4,1.2,0.8,2.8,0.8,4.2    c0,19.3,0,38.6,0,57.9c0,0.4,0.1,0.8,0.1,1.2c-23,0-46.2,0-69.2,0c0.3-11.4,0.3-22.8,0-34.1c2.1,0.1,1.1,1.7,1.1,2.5    c0.1,9.1,0.1,18.3,0,27.4c-0.1,2.6,0.8,3.3,3.3,3.3c20.1-0.1,40.2-0.1,60.3,0c2.9,0,3.3-1,3.3-3.5c-0.1-16.5-0.1-33-0.1-49.6    C289,340.4,289.1,337.3,289.1,334.2z" fill="none" stroke="#FAFAFA" stroke-miterlimit="10" stroke-width="10"/><path d="M289.1,334.2c-0.1,3.1-0.1,6.3-0.1,9.4    c0,16.5-0.1,33,0.1,49.6c0,2.5-0.5,3.6-3.3,3.5c-20.1-0.1-40.2-0.1-60.3,0c-2.5,0-3.4-0.7-3.3-3.3c0.1-9.1,0.1-18.3,0-27.4    c0-0.8,1-2.5-1.1-2.5c-0.5,0-0.8,0.1-1.3,0.1c-0.8-0.4-1.6-0.3-2.2,0.6c-8.1,0.8-16.3,1.5-24.3-0.5c-14.2-3.6-24.4-12-30.7-25.4    c-4-8.7-9.4-16.8-15.6-24.3c-2-2.4-5.1-3.3-7.2-5.6c-0.8-0.9-2.1-1.6-1.7-2.9c0.4-1.5,2-1.4,3.3-1.6c13.1-1.1,22.3,5.1,28.8,15.8    c5.9,9.8,13.7,17,24.9,20c8,2.1,15.9,1.6,23.8-0.8c1.8-0.6,2.8-1.4,3-3.6c0.6-8.1,2.3-15.9,7.9-22.8c-2.2-0.4-3.9-0.8-5.6-1    c-13.8-2.1-26.7-6.9-37.9-15.4c-12.5-9.5-20.2-22.3-22.7-37.9c-2.1-13.6-1.3-27.4,0.5-41c1.4-10.5,4.3-20.5,11.9-28.3    c2.7-2.7,2.9-5,1.7-8.4c-4-11.6-2.9-23.3,0.7-34.9c0.7-2.2,1.6-2.8,4-2.2c8.8,2.2,15.6,7.3,21.7,13.6c3,3,5.6,6.4,8,9.8    c0.7,1,1.2,1.5,2.5,0.5c4.7-3.7,10.4-4.9,16.1-5.7c16.5-2.4,33-2.4,49.4-0.1c5.5,0.8,11,1.8,15.6,5.2c2.2,1.6,3,0.7,4.2-1    c4.4-6.4,9.7-11.9,16-16.4c4-2.9,8.4-4.8,13.3-6c2.1-0.5,2.9,0.1,3.6,2c4.4,12.5,5.1,25.1,0.1,37.6c-0.6,1.6-1,2.7,0.5,4    c8,7.6,11.8,17.2,13.4,27.9c1.9,12.9,3,25.9,1.5,39c-2.5,22.1-13.7,38.1-33.2,48.6c-0.7-0.1-1.3,0.1-1.6,0.8    c-0.5,0.3-1,0.5-1.5,0.7c-1.7,0.1-3.1,0.8-4.3,1.9c-0.5,0.2-1.1,0.3-1.6,0.5c-0.8-0.2-1.3,0.1-1.6,0.8c-0.3,0.1-0.7,0.2-1,0.3    c-2.6,0.4-5.2,0.7-7.4,2.3c-0.3,0.1-0.7,0.1-1,0.2c-1.9-0.1-3.8,0.1-5.4,1.2c-1.4,0.2-2.8,0.4-4.2,0.6c-1.1,0.1-2.4-0.1-3.3,0.3    c-1,0.5-0.6,1.1,0.3,1.4l0.1,0.1c0.1,0.9,0.5,1.6,1.4,1.8c0.5,1,1,2.1,1.6,3.1c0.1,1.4,0.4,2.7,1.6,3.6c0.1,0.6,0.3,1.1,0.4,1.7    c0.3,1.8,0.3,3.7,1.4,5.3c0.1,0.4,0.1,0.8,0.2,1.1c-0.4,0.8-0.2,1.5,0.4,2.2C289.1,332.8,289.1,333.5,289.1,334.2z" fill="none" stroke="#FAFAFA" stroke-miterlimit="10" stroke-width="10"/><path d="M295.8,309.7c2.2-1.6,4.8-1.9,7.4-2.3    C300.8,308.4,298.6,310,295.8,309.7z" fill="none" stroke="#FAFAFA" stroke-miterlimit="10" stroke-width="10"/><path d="M289.3,311.2c1.6-1.2,3.5-1.2,5.4-1.2    C293.2,311.2,291.3,311.4,289.3,311.2z" fill="none" stroke="#FAFAFA" stroke-miterlimit="10" stroke-width="10"/><path d="M288.4,329c-1.1-1.6-1.1-3.5-1.4-5.3    C288.4,325.2,288.9,327,288.4,329z" fill="none" stroke="#FAFAFA" stroke-miterlimit="10" stroke-width="10"/><path d="M307.5,305.7c1.2-1.1,2.6-1.9,4.3-1.9    C310.7,305.1,309.3,305.9,307.5,305.7z" fill="none" stroke="#FAFAFA" stroke-miterlimit="10" stroke-width="10"/><path d="M282.1,313.5c-1-0.3-1.4-0.9-0.3-1.4    c1-0.4,2.2-0.3,3.3-0.3C284.4,312.9,282.5,311.9,282.1,313.5z" fill="none" stroke="#FAFAFA" stroke-miterlimit="10" stroke-width="10"/><path d="M286.6,322c-1.2-0.9-1.4-2.2-1.6-3.6    C286.4,319.3,286.5,320.6,286.6,322z" fill="none" stroke="#FAFAFA" stroke-miterlimit="10" stroke-width="10"/><path d="M289,332.3c-0.6-0.7-0.7-1.3-0.4-2.2    C289.4,330.7,289.6,331.4,289,332.3z" fill="none" stroke="#FAFAFA" stroke-miterlimit="10" stroke-width="10"/><path d="M217.5,364.1c0.5-0.9,1.2-0.9,2.2-0.6    C219.1,364.1,218.4,364.5,217.5,364.1z" fill="none" stroke="#FAFAFA" stroke-miterlimit="10" stroke-width="10"/><path d="M283.6,315.3c-0.9-0.3-1.3-0.9-1.4-1.8    C283.2,313.7,283.6,314.4,283.6,315.3z" fill="none" stroke="#FAFAFA" stroke-miterlimit="10" stroke-width="10"/><path d="M313.4,303.1c0.3-0.7,0.9-0.9,1.6-0.8    C314.8,303.1,314.3,303.6,313.4,303.1z" fill="none" stroke="#FAFAFA" stroke-miterlimit="10" stroke-width="10"/><path d="M304.3,307.1c0.3-0.7,0.8-1,1.6-0.8    C305.6,307.1,305.2,307.5,304.3,307.1z" fill="none" stroke="#FAFAFA" stroke-miterlimit="10" stroke-width="10"/></g></g></svg>