<?xml version="1.0" encoding="utf-8"?>
<!-- Generator: Adobe Illustrator 18.0.0, SVG Export Plug-In . SVG Version: 6.00 Build 0)  -->
<!DOCTYPE svg PUBLIC "-//W3C//DTD SVG 1.1//EN" "http://www.w3.org/Graphics/SVG/1.1/DTD/svg11.dtd">
<svg version="1.1" id="Слой_1" xmlns="http://www.w3.org/2000/svg" xmlns:xlink="http://www.w3.org/1999/xlink" x="0px" y="0px"
	 viewBox="0 0 1700.8 1700.8" enable-background="new 0 0 1700.8 1700.8" xml:space="preserve">
<g>
	<path fill="#23282B" d="M1504.5,562.6c-42.5-85-107.9-160.3-186.4-219.1c-9.8-9.8-26.2-6.5-36,6.5c-9.8,9.8-6.5,26.2,6.5,36
		c72,52.3,130.8,121,170.1,199.5c42.5,81.8,62.1,170.1,62.1,264.9c0,317.3-258.4,575.7-575.7,575.7s-575.7-258.4-575.7-575.7
		S628,274.7,945.2,274.7c13.1,0,26.2-9.8,26.2-26.2c0-13.1-9.8-26.2-26.2-26.2c-343.4,0-624.7,281.3-624.7,628s281.3,628,628,628
		s624.7-281.3,624.7-628C1573.2,752.3,1550.3,650.9,1504.5,562.6z"/>
	<path fill="#23282B" d="M785,559.3c-6.5,3.3-13.1,13.1-13.1,22.9v559.3c0,13.1,9.8,26.2,26.2,26.2c13.1,0,26.2-9.8,26.2-26.2V628
		l376.1,222.4l-278,179.9c-13.1,6.5-16.4,22.9-6.5,36c6.5,13.1,22.9,16.4,36,6.5l314-202.8c6.5-3.3,13.1-13.1,13.1-22.9
		c0-9.8-3.3-16.4-13.1-22.9L814.4,556C804.6,556,794.8,556,785,559.3z"/>
</g>
</svg>
