<svg version="1" xmlns="http://www.w3.org/2000/svg" viewBox="0 0 52 52"><g fill="#0BDBAC"><path d="M46 17.2c-1.3-2.6-3.3-4.9-5.7-6.7-.3-.3-.8-.2-1.1.2-.3.3-.2.8.2 1.1 2.2 1.6 4 3.7 5.2 6.1 1.3 2.5 1.9 5.2 1.9 8.1 0 9.7-7.9 17.6-17.6 17.6-9.7 0-17.6-7.9-17.6-17.6S19.2 8.4 28.9 8.4c.4 0 .8-.3.8-.8 0-.4-.3-.8-.8-.8C18.4 6.8 9.8 15.4 9.8 26S18.4 45.2 29 45.2 48.1 36.6 48.1 26c0-3-.7-6.1-2.1-8.8z"/><path d="M24 17.1c-.2.1-.4.4-.4.7v17.1c0 .4.3.8.8.8.4 0 .8-.3.8-.8V19.2L36.7 26l-8.5 5.5c-.4.2-.5.7-.2 1.1.2.4.7.5 1.1.2l9.6-6.2c.2-.1.4-.4.4-.7s-.1-.5-.4-.7L24.9 17c-.3 0-.6 0-.9.1z"/></g></svg>