<svg xmlns="http://www.w3.org/2000/svg" viewBox="0 0 86 32">
  <path fill="#cbd5de" d="M48.78 1.16c-2.46.57-3.69 1.87-3.7 3.92-.01 2.4 1.33 3.5 5.63 4.61 2.08.55 2.8 1.49 1.8 2.4-1.12 1.04-3.31.37-3.59-1.1-.13-.73-.13-.73-2.43-.6l-2.04.11.1.64c.15 1 .97 2.52 1.67 3.12 2.06 1.76 7.74 1.58 9.69-.31l.56-.56.11.65c.4 2.37 2.8 4.6 5.58 5.15l.89.18-.53.7c-1.73 2.26-1.78 6.9-.1 9.32 2.58 3.68 9.83 3.58 12.22-.18l.44-.7v3.33h11.24v-3.59h-6.71V17.8h-4.53v1.6c-.01 1.3-.05 1.54-.2 1.3a6.78 6.78 0 00-4.18-2.93l-.88-.18.9-.68c2.79-2.1 4.53-5.93 4.08-9-1.17-8.06-12.78-8.18-17.2-.18l-.55.97c-.02.02-.4-.34-.88-.8-.99-.95-1.78-1.3-4.47-1.97-2.5-.62-3.01-1.05-2.17-1.84.8-.76 2.54-.27 2.94.82.23.63.18.63 2.84.45l1.54-.1-.1-.61c-.45-2.84-4.02-4.4-7.97-3.5zM.94 8.27v7.03h4.52V9.68h.46c.73 0 1.17.53 2.57 3.12l1.3 2.42 2.52.04c1.39.02 2.52 0 2.52-.05 0-.79-2.82-5.36-3.6-5.83l-.43-.26.86-.46c3.21-1.68 2.6-6.5-.91-7.25-.45-.1-2.7-.16-5.3-.16H.95v7.02zm68.54-5.8c7.06 1.85 6.41 11.76-1 15.38-7.57 3.68-14.3-2.37-10.72-9.62 2.1-4.23 7.47-6.87 11.71-5.76zM8.58 4.41c1.6.8.54 2.3-1.71 2.42l-1.4.08v-2.7h1.36c.78 0 1.53.1 1.75.2zm58.4 1.25c-1.25.33-2.51 1.58-2.51 2.49 0 1.48 1.18 2.01 3.04 1.37 1.14-.39 1.43-.39 1.64 0 .36.67-.81 1.35-1.5.87-.34-.24-1.6.52-1.61.97-.02.69 1.7.94 2.76.42 3.36-1.68 2.4-5.27-1.08-4.07-1.4.48-1.7.5-1.7.12 0-.6.96-1.05 1.37-.63.17.17 1.45-.68 1.45-.96 0-.42-1.14-.78-1.86-.58zm-5.04 3.37c-.75.53-.78.4.58 2.33.84 1.2 1.17 1.79 1.14 2.06-.06.48-.6.6-.97.23-.24-.24-.3-.22-.87.27-1.43 1.22.75 2.27 2.36 1.14 1.77-1.25 1.77-2.02.01-4.6-1.36-2-1.43-2.03-2.25-1.43zm-57.3 8.61c-2.56.4-4.05 1.9-4.07 4.07-.02 2.2 1.41 3.47 4.96 4.36 2.18.54 2.9.96 2.9 1.68 0 2.02-3.62 1.81-4-.23-.13-.7-.11-.7-2.42-.58l-2.04.11.1.64c.46 2.94 2.17 4.16 5.97 4.28 3.02.09 4.05-.2 5.37-1.52l.9-.9.33.45c1.91 2.59 8.38 2.76 10.5.28a7 7 0 001.4-2.72c.05-.44.03-.45-1.86-1.03l-1.9-.57-.26.77c-.88 2.62-4.17 2.65-4.9.04-.24-.89-.2-3 .06-3.92.66-2.2 3.43-2.66 4.56-.74.46.8.34.78 2.47.3 2.02-.46 1.94-.37 1.47-1.37-1.83-3.94-7.99-4.87-11.25-1.7l-.91.9-.38-.65c-.94-1.6-3.92-2.43-7-1.95zm43.13 0a6.97 6.97 0 00-4.4 2.81c-.26.38-.27.35-.28-1.13v-1.53h-4.53v4.84h-4.53V17.8H29.5v14.04h4.53v-5.62h4.53v5.62h4.52v-3.17l.5.73c2.03 3.07 8.32 3.61 11.18.96 3.31-3.06 2.66-10.04-1.12-11.97a10.75 10.75 0 00-5.87-.74zm-40.6 2.88c.27.14.57.5.74.88l.28.65 3.05-.15-.1.8c-.13 1.05-.19 1.09-1.06.7-.41-.18-1.57-.53-2.57-.78-2.36-.6-2.65-.72-2.77-1.2-.23-.9 1.33-1.47 2.44-.9zm43.27.56c2.31.64 2.78 5.95.64 7.2-1.6.95-3.63.15-4.1-1.62-.95-3.5.8-6.32 3.46-5.58zm18.88 0c2.68.74 2.63 6.78-.07 7.5-2.17.59-3.62-.92-3.6-3.76 0-2.95 1.4-4.38 3.67-3.75z"/>
</svg>
